<?xml version="1.0" encoding="utf-8"?>
<!-- Generator: Adobe Illustrator 18.0.0, SVG Export Plug-In . SVG Version: 6.00 Build 0)  -->
<!DOCTYPE svg PUBLIC "-//W3C//DTD SVG 1.1//EN" "http://www.w3.org/Graphics/SVG/1.1/DTD/svg11.dtd">
<svg version="1.1" xmlns="http://www.w3.org/2000/svg" xmlns:xlink="http://www.w3.org/1999/xlink" x="0px" y="0px"
	 viewBox="0 0 2272 1872" enable-background="new 0 0 2272 1872" xml:space="preserve">
<g id="Background">
	<rect x="-25.1" y="-31.5" fill="#FFFFFF" width="2316" height="1930.2"/>
</g>
<g id="Object">
	<g>
		<path fill="#F47721" d="M1900.3,494c0-93.4-76-169.4-169.4-169.4c-93.4,0-169.4,76-169.4,169.4s76,169.4,169.4,169.4
			C1824.3,663.4,1900.3,587.4,1900.3,494z M1730.9,632c-76.1,0-138-61.9-138-138s61.9-138,138-138c76.1,0,138,61.9,138,138
			S1807,632,1730.9,632z"/>
		<path fill="#F47721" d="M1704.5,670.9v121.7h53.6V670.8c-8.9,1.4-17.9,2.1-27.2,2.1C1721.9,672.8,1713.1,672.1,1704.5,670.9z"/>
		<path fill="#F47721" d="M1747.5,544.5c-1,1.7-2.8,2.6-4.7,2.3c-1.9-0.3-3.5-1.7-3.9-3.5l-37.1-150.1l-38.3,90
			c-0.7,1.7-2.4,2.9-4.3,2.9h-36.4v15.7h49.9l19.7-46.3c0.7-1.7,2.5-2.9,4.3-2.9c0.1,0,0.3,0,0.4,0c2,0.2,3.7,1.6,4.2,3.6
			l34.7,140.2l49.2-86c0.8-1.5,2.4-2.4,4.1-2.4h40.6v-15.7h-52.4L1747.5,544.5z"/>
		<path fill="#6DCACB" d="M1730.9,365.4c-70.9,0-128.6,57.7-128.6,128.6s57.7,128.6,128.6,128.6c70.9,0,128.6-57.7,128.6-128.6
			S1801.8,365.4,1730.9,365.4z M1834.4,517.5h-42.5l-53.7,93.8c-0.8,1.5-2.4,2.4-4.1,2.4c-0.2,0-0.4,0-0.6,0
			c-1.9-0.3-3.5-1.7-3.9-3.5l-34.1-137.9l-15.4,36.2c-0.7,1.7-2.4,2.9-4.3,2.9H1618c-2.6,0-4.7-2.1-4.7-4.7v-25.1
			c0-2.6,2.1-4.7,4.7-4.7h38l42.6-100.1c0.8-1.9,2.8-3,4.7-2.8c2,0.2,3.7,1.6,4.2,3.6l37.7,152.3l25.4-44.3c0.8-1.5,2.4-2.4,4.1-2.4
			h59.8c2.6,0,4.7,2.1,4.7,4.7v25.1C1839.1,515.4,1837,517.5,1834.4,517.5z"/>
		<path fill="#6DCACB" d="M1949.7,556.8H2185c0.5-5,0.8-10.2,0.8-15.7c0-7.8-0.6-15.1-1.7-22h-234.4c-2.6,0-4.7-2.1-4.7-4.7
			s2.1-4.7,4.7-4.7h232.6c-3.5-14.9-9.3-27.3-16.6-37.6h-216c-2.6,0-4.7-2.1-4.7-4.7s2.1-4.7,4.7-4.7h208.5
			c-30.1-33.9-74.3-40-75-40c-1.8-0.2-3.2-1.4-3.8-3H1942c-2.6,0-4.7-2.1-4.7-4.7s2.1-4.7,4.7-4.7h137.5c0.2-12.6-1.7-25.7-5.4-38.8
			h-157.4c-2.6,0-4.7-2.1-4.7-4.7c0-2.6,2.1-4.7,4.7-4.7h154.3c-3.2-8.9-7.1-17.7-11.9-26.3h-177.8c-2.6,0-4.7-2.1-4.7-4.7
			s2.1-4.7,4.7-4.7h172.1c-5.4-8.4-11.5-16.5-18.4-24c-31.3-34.2-73.6-53-119.1-53c-87.5,0-132.9,52.9-145.4,70.4
			c79.6,18.1,139.1,89.4,139.1,174.3c0,75.7-47.3,140.6-114,166.6c74,0,248.6-0.2,270.6-0.2c3.6,0,65.6-0.8,98.8-47.2h-246.9
			c-2.6,0-4.7-2.1-4.7-4.7s2.1-4.7,4.7-4.7h252.9c5.8-10.5,10.2-22.9,12.6-37.6h-234.1c-2.6,0-4.7-2.1-4.7-4.7
			C1945,558.9,1947.1,556.8,1949.7,556.8z"/>
		<path d="M1730.9,356c-76.1,0-138,61.9-138,138s61.9,138,138,138c76.1,0,138-61.9,138-138S1807,356,1730.9,356z M1730.9,622.6
			c-70.9,0-128.6-57.7-128.6-128.6s57.7-128.6,128.6-128.6c70.9,0,128.6,57.7,128.6,128.6S1801.8,622.6,1730.9,622.6z"/>
		<path d="M1834.4,483h-59.8c-1.7,0-3.2,0.9-4.1,2.4l-25.4,44.3l-37.7-152.3c-0.5-2-2.2-3.4-4.2-3.6c-2-0.1-3.9,1-4.7,2.8
			L1656,476.8h-38c-2.6,0-4.7,2.1-4.7,4.7v25.1c0,2.6,2.1,4.7,4.7,4.7h57.7c1.9,0,3.6-1.1,4.3-2.9l15.4-36.2l34.1,137.9
			c0.5,1.9,2,3.3,3.9,3.5c0.2,0,0.4,0,0.6,0c1.7,0,3.2-0.9,4.1-2.4l53.7-93.8h42.5c2.6,0,4.7-2.1,4.7-4.7v-25.1
			C1839.1,485.1,1837,483,1834.4,483z M1829.7,508.1h-40.6c-1.7,0-3.2,0.9-4.1,2.4l-49.2,86l-34.7-140.2c-0.5-2-2.2-3.4-4.2-3.6
			c-0.1,0-0.3,0-0.4,0c-1.9,0-3.6,1.1-4.3,2.9l-19.7,46.3h-49.9v-15.7h36.4c1.9,0,3.6-1.1,4.3-2.9l38.3-90l37.1,150.1
			c0.5,1.9,2,3.3,3.9,3.5c1.9,0.2,3.8-0.7,4.7-2.3l29.8-52.1h52.4V508.1z"/>
		<path d="M2172.8,465.6c-0.3-0.7-0.7-1.3-1.3-1.8c-27-36-69.1-47.1-82.7-49.8c1.3-27.4-6.8-57.3-22.2-84.3
			c-0.2-0.9-0.7-1.6-1.3-2.2c-6.6-11.2-14.4-21.8-23.3-31.6c-33.1-36.1-77.9-56-126.1-56c-97.9,0-146,63.6-155.5,77.8
			c-9.6-1.6-19.5-2.5-29.6-2.5c-98.6,0-178.8,80.2-178.8,178.8c0,86.3,61.5,158.5,143,175.2v128.1c0,2.6,2.1,4.7,4.7,4.7h63
			c2.6,0,4.7-2.1,4.7-4.7V670c36.4,0,273-0.2,298.9-0.2c4,0,76.4-0.9,110.8-57.3c1.4-0.8,2.4-2.3,2.4-4c0,0,0,0,0,0
			c9.5-17.2,15.6-39.2,15.6-67.4C2195.2,508.3,2185.9,483.9,2172.8,465.6z M1758.1,792.6h-53.6V670.9c8.6,1.3,17.5,2,26.4,2
			c9.2,0,18.3-0.7,27.2-2.1V792.6z M1730.9,663.4c-93.4,0-169.4-76-169.4-169.4s76-169.4,169.4-169.4c93.4,0,169.4,76,169.4,169.4
			S1824.3,663.4,1730.9,663.4z M1949.7,566.2h234.1c-2.4,14.7-6.8,27.2-12.6,37.6h-252.9c-2.6,0-4.7,2.1-4.7,4.7s2.1,4.7,4.7,4.7
			h246.9c-33.2,46.4-95.3,47.2-98.8,47.2c-22,0-196.7,0.1-270.6,0.2c66.6-26,114-90.9,114-166.6c0-85-59.6-156.2-139.1-174.3
			c12.6-17.5,57.9-70.4,145.4-70.4c45.5,0,87.8,18.8,119.1,53c6.9,7.5,13,15.6,18.4,24h-172.1c-2.6,0-4.7,2.1-4.7,4.7
			s2.1,4.7,4.7,4.7h177.8c4.8,8.5,8.7,17.4,11.9,26.3h-154.3c-2.6,0-4.7,2.1-4.7,4.7c0,2.6,2.1,4.7,4.7,4.7h157.4
			c3.7,13.1,5.6,26.2,5.4,38.8H1942c-2.6,0-4.7,2.1-4.7,4.7s2.1,4.7,4.7,4.7h137.5c0.6,1.6,2,2.8,3.8,3c0.7,0.1,44.9,6.1,75,40
			h-208.5c-2.6,0-4.7,2.1-4.7,4.7s2.1,4.7,4.7,4.7h216c7.2,10.3,13.1,22.7,16.6,37.6h-232.6c-2.6,0-4.7,2.1-4.7,4.7s2.1,4.7,4.7,4.7
			h234.4c1.1,6.9,1.7,14.1,1.7,22c0,5.5-0.3,10.7-0.8,15.7h-235.3c-2.6,0-4.7,2.1-4.7,4.7C1945,564.1,1947.1,566.2,1949.7,566.2z"/>
	</g>
	<g>
		<rect x="2003" y="1160.8" fill="#6DCACB" width="63" height="63"/>
		<rect x="2054.2" y="1292.7" fill="#F47721" width="27.4" height="27.4"/>
		<rect x="1866.5" y="1107.7" fill="#F47721" width="54.4" height="54.4"/>
		<rect x="1586.6" y="1344.5" fill="#F47721" width="47.8" height="47.8"/>
		<rect x="1694.4" y="1385" fill="#6DCACB" width="54.4" height="54.4"/>
		<rect x="1754.8" y="1228.9" fill="#F47721" width="54.4" height="54.4"/>
		<rect x="1625.6" y="1497.5" fill="#F47721" width="33.7" height="33.7"/>
		<rect x="1589.1" y="1130.1" fill="#6DCACB" width="106.7" height="106.7"/>
		<rect x="1861" y="1260.8" fill="#6DCACB" width="106.7" height="106.7"/>
		<path fill="#6DCACB" d="M2070.8,1519.1c-0.7,0-1.4-0.2-2-0.5H2048v45h45v-45h-20.2C2072.2,1518.9,2071.5,1519.1,2070.8,1519.1z"/>
		<rect x="1778.4" y="1563.6" fill="#6DCACB" width="54.4" height="54.4"/>
		<rect x="1768.3" y="1482.3" fill="#6DCACB" width="27.4" height="27.4"/>
		<rect x="2054.2" y="1393.1" fill="#F47721" width="32.6" height="32.6"/>
		<rect x="1891.3" y="1429.7" fill="#F47721" width="106.7" height="106.7"/>
		<path d="M2097.7,1509.2h-22.2v-74h16.1c2.6,0,4.7-2.1,4.7-4.7v-42c0-2.6-2.1-4.7-4.7-4.7h-42c-2.6,0-4.7,2.1-4.7,4.7v42
			c0,2.6,2.1,4.7,4.7,4.7h16.6v74h-22.7c-2.6,0-4.7,2.1-4.7,4.7v16.3l-31.3-29.4V1425c0-2.6-2.1-4.7-4.7-4.7h-116.1
			c-2.6,0-4.7,2.1-4.7,4.7v54l-76.7,11.5v-12.9c0-2.6-2.1-4.7-4.7-4.7h-36.8c-2.6,0-4.7,2.1-4.7,4.7v14.3l-90.2,12.5v-11.5
			c0-2.6-2.1-4.7-4.7-4.7h-43.1c-2.6,0-4.7,2.1-4.7,4.7v43.1c0,2.6,2.1,4.7,4.7,4.7h43.1c2.6,0,4.7-2.1,4.7-4.7v-6.4l100.3,63.8
			v29.3c0,2.6,2.1,4.7,4.7,4.7h63.8c2.6,0,4.7-2.1,4.7-4.7v-63.8c0-2.6-2.1-4.7-4.7-4.7h-63.8c-2.6,0-4.7,2.1-4.7,4.7v23.3
			l-100.3-63.8v-4.5l90.2-12.5v13c0,2.6,2.1,4.7,4.7,4.7h36.8c2.6,0,4.7-2.1,4.7-4.7V1500l76.7-11.5v52.6c0,2.6,2.1,4.7,4.7,4.7
			h116.1c2.6,0,4.7-2.1,4.7-4.7v-27.4l31.3,29.4v25.2c0,2.6,2.1,4.7,4.7,4.7h54.4c2.6,0,4.7-2.1,4.7-4.7v-54.4
			C2102.4,1511.3,2100.3,1509.2,2097.7,1509.2z M1659.3,1531.2h-33.7v-33.7h33.7V1531.2z M1778.4,1563.6h54.4v54.4h-54.4V1563.6z
			 M1795.7,1509.7h-27.4v-27.4h27.4V1509.7z M1998,1536.4h-106.7v-106.7H1998V1536.4z M2054.2,1425.8v-32.6h32.6v32.6H2054.2z
			 M2093,1563.6h-45v-45h20.8c0.6,0.3,1.3,0.5,2,0.5s1.4-0.2,2-0.5h20.2V1563.6z"/>
		<path d="M1643.8,1397v-18.7l41.2,33.7v32c0,2.6,2.1,4.7,4.7,4.7h63.8c2.6,0,4.7-2.1,4.7-4.7v-63.8c0-2.6-2.1-4.7-4.7-4.7h-24
			l44.8-82.9h39.5c2.6,0,4.7-2.1,4.7-4.7v-18.2l32.9,42.3v60.1c0,2.6,2.1,4.7,4.7,4.7h116.1c2.6,0,4.7-2.1,4.7-4.7v-53.8l67.8-6.8
			v13.2c0,2.6,2.1,4.7,4.7,4.7h36.8c2.6,0,4.7-2.1,4.7-4.7V1288c0-2.6-2.1-4.7-4.7-4.7h-15.6l-28.1-50h28.2c2.6,0,4.7-2.1,4.7-4.7
			v-72.5c0-2.6-2.1-4.7-4.7-4.7h-72.5c-2.6,0-4.7,2.1-4.7,4.7v22.9l-63.4-40.5V1103c0-2.6-2.1-4.7-4.7-4.7h-63.8
			c-2.6,0-4.7,2.1-4.7,4.7v22.3l-151.9,55.6v-55.5c0-2.6-2.1-4.7-4.7-4.7h-116.1c-2.6,0-4.7,2.1-4.7,4.7v116.1
			c0,2.6,2.1,4.7,4.7,4.7h116.1c2.6,0,4.7-2.1,4.7-4.7v-50.6l151.9-55.6v31.5c0,2.6,2.1,4.7,4.7,4.7h63.8c2.6,0,4.7-2.1,4.7-4.7
			v-17.1l63.4,40.5v38.4c0,2.6,2.1,4.7,4.7,4.7h33.5l28.1,50h-10.4c-2.6,0-4.7,2.1-4.7,4.7v14.1l-67.8,6.8v-52.8
			c0-2.6-2.1-4.7-4.7-4.7h-116.1c-2.6,0-4.7,2.1-4.7,4.7v40.7l-32.9-42.3v-30.3c0-2.6-2.1-4.7-4.7-4.7h-63.8c-2.6,0-4.7,2.1-4.7,4.7
			v63.8c0,2.6,2.1,4.7,4.7,4.7h13.5l-44.8,82.9h-29.1c-2.6,0-4.7,2.1-4.7,4.7v19.6l-41.2-33.7v-26.4c0-2.6-2.1-4.7-4.7-4.7h-57.2
			c-2.6,0-4.7,2.1-4.7,4.7v57.2c0,2.6,2.1,4.7,4.7,4.7h57.2C1641.7,1401.7,1643.8,1399.6,1643.8,1397z M1695.8,1236.8h-106.7v-106.7
			h106.7V1236.8z M1920.8,1162h-54.4v-54.4h54.4V1162z M2003,1223.9v-63h63v63H2003z M2054.2,1292.7h27.4v27.4h-27.4V1292.7z
			 M1861,1260.8h106.7v106.7H1861V1260.8z M1754.8,1283.3v-54.4h54.4v54.4H1754.8z M1694.4,1385h54.4v54.4h-54.4V1385z
			 M1634.4,1392.3h-47.8v-47.8h47.8V1392.3z"/>
	</g>
	<g>
		<path fill="#F47721" d="M256.3,1423l-97.4,138.7l56.3,41.7l101.2-132.9C293.3,1458.7,272.9,1442.5,256.3,1423z"/>
		<path fill="#6DCACB" d="M403.9,1438.4c76.7,0,139.1-61.8,139.1-137.7c0-75.9-62.4-137.7-139.1-137.7s-139.1,61.8-139.1,137.7
			C264.8,1376.6,327.2,1438.4,403.9,1438.4z M277.4,1314.1v-26.8c0-2.6,2.1-4.7,4.7-4.7h41.2l46.1-107.2c0.8-1.9,2.6-3,4.7-2.8
			c2,0.2,3.7,1.6,4.2,3.6l40.9,163.6l27.8-48.1c0.8-1.5,2.4-2.3,4.1-2.3h64.5c2.6,0,4.7,2.1,4.7,4.7v26.8c0,2.6-2.1,4.7-4.7,4.7
			h-46.1l-58,100.3c-0.9,1.5-2.4,2.3-4.1,2.3c-0.2,0-0.4,0-0.7,0c-1.9-0.3-3.4-1.7-3.9-3.5l-37-148.3l-17.1,39.7
			c-0.7,1.7-2.4,2.8-4.3,2.8h-62.2C279.5,1318.8,277.4,1316.7,277.4,1314.1z"/>
		<path fill="#F47721" d="M366.9,1256.9c0.1,0,0.3,0,0.4,0c2,0.2,3.7,1.6,4.2,3.6l37.6,150.6l53.6-92.6c0.8-1.5,2.4-2.3,4.1-2.3
			h44.1v-17.4h-57.1l-32.3,55.8c-1,1.7-2.8,2.6-4.7,2.3c-1.9-0.3-3.4-1.7-3.9-3.5l-40.3-161.4l-41.8,97.2c-0.7,1.7-2.4,2.8-4.3,2.8
			h-39.6v17.4h54.4l21.3-49.6C363.3,1258,365,1256.9,366.9,1256.9z"/>
		<path fill="#F47721" d="M403.9,1482c101,0,183.1-81.3,183.1-181.3s-82.1-181.3-183.1-181.3c-100.9,0-183.1,81.3-183.1,181.3
			S302.9,1482,403.9,1482z M403.9,1153.6c81.9,0,148.5,66,148.5,147.1c0,81.1-66.6,147.1-148.5,147.1s-148.5-66-148.5-147.1
			C255.4,1219.6,322,1153.6,403.9,1153.6z"/>
		<path d="M403.9,1491.4c106.1,0,192.5-85.5,192.5-190.7c0-105.1-86.3-190.7-192.5-190.7c-106.1,0-192.5,85.5-192.5,190.7
			c0,43,14.5,82.7,38.8,114.7L148.6,1560c-1.5,2.1-1,5,1,6.5l63.7,47.2c0.8,0.6,1.8,0.9,2.8,0.9c1.4,0,2.8-0.6,3.7-1.9l105.2-138.2
			C349.2,1485.4,375.8,1491.4,403.9,1491.4z M220.8,1300.7c0-100,82.1-181.3,183.1-181.3c101,0,183.1,81.3,183.1,181.3
			S504.8,1482,403.9,1482C302.9,1482,220.8,1400.7,220.8,1300.7z M215.2,1603.4l-56.3-41.7l97.4-138.7c16.5,19.6,37,35.8,60.1,47.5
			L215.2,1603.4z"/>
		<path d="M403.9,1447.8c81.9,0,148.5-66,148.5-147.1c0-81.1-66.6-147.1-148.5-147.1s-148.5,66-148.5,147.1
			C255.4,1381.8,322,1447.8,403.9,1447.8z M403.9,1163c76.7,0,139.1,61.8,139.1,137.7c0,75.9-62.4,137.7-139.1,137.7
			s-139.1-61.8-139.1-137.7C264.8,1224.8,327.2,1163,403.9,1163z"/>
		<path d="M348.6,1316l17.1-39.7l37,148.3c0.5,1.9,2,3.3,3.9,3.5c0.2,0,0.4,0,0.7,0c1.7,0,3.2-0.9,4.1-2.3l58-100.3h46.1
			c2.6,0,4.7-2.1,4.7-4.7V1294c0-2.6-2.1-4.7-4.7-4.7H451c-1.7,0-3.2,0.9-4.1,2.3l-27.8,48.1l-40.9-163.6c-0.5-2-2.2-3.4-4.2-3.6
			c-2.1-0.1-3.9,1-4.7,2.8l-46.1,107.2h-41.2c-2.6,0-4.7,2.1-4.7,4.7v26.8c0,2.6,2.1,4.7,4.7,4.7h62.2
			C346.2,1318.8,347.9,1317.7,348.6,1316z M286.8,1309.4V1292h39.6c1.9,0,3.6-1.1,4.3-2.8l41.8-97.2l40.3,161.4
			c0.5,1.9,2,3.3,3.9,3.5c1.9,0.3,3.8-0.6,4.7-2.3l32.3-55.8h57.1v17.4h-44.1c-1.7,0-3.2,0.9-4.1,2.3l-53.6,92.6l-37.6-150.6
			c-0.5-2-2.2-3.4-4.2-3.6c-0.1,0-0.3,0-0.4,0c-1.9,0-3.6,1.1-4.3,2.8l-21.3,49.6H286.8z"/>
		<path d="M621.6,1147.1c-1.1-0.8-2.3-1.2-3.6-1.2l-0.6,0c-1.4,0.2-2.5,0.7-3.5,1.6l-8.7,8.8c-0.9,1-1.4,2.3-1.4,3.7
			c0,1.5,0.6,2.8,1.7,3.9c1,1,2.3,1.5,4,1.5c0,0,0,0,0.1,0c1-0.1,1.9-0.3,2.7-0.9v52.1c0,1.5,0.6,2.8,1.7,3.9c1.1,1,2.4,1.6,3.9,1.6
			c1.5,0,2.8-0.6,3.9-1.6c1.1-1.1,1.7-2.4,1.7-3.9v-65.3c0-0.5-0.1-1-0.2-1.7C623.1,1148.7,622.5,1147.8,621.6,1147.1z"/>
		<path d="M705.1,1169.2c-2.1-4.6-4.9-8.7-8.5-12.1c-3.6-3.4-7.8-6.2-12.5-8.2c-9.6-4-21.1-4-30.6,0c-4.7,2-9,4.7-12.5,8.2
			c-3.6,3.5-6.4,7.5-8.5,12.1c-2.1,4.6-3.1,9.6-3.1,14.9c0,5.2,1,10.3,3.1,14.9c2.1,4.6,4.9,8.7,8.5,12.1c3.6,3.4,7.8,6.2,12.5,8.2
			c4.8,2,9.9,3,15.3,3c5.4,0,10.5-1,15.3-3c4.7-2,9-4.7,12.5-8.2c3.6-3.4,6.4-7.5,8.5-12.1c2.1-4.6,3.1-9.6,3.1-14.9
			C708.2,1178.8,707.2,1173.8,705.1,1169.2z M694.6,1194.8c-1.4,3.4-3.4,6.4-5.9,8.8c-2.5,2.5-5.5,4.5-8.9,5.9
			c-6.8,2.9-15.2,2.9-22,0c-3.4-1.4-6.4-3.4-8.9-5.9c-2.5-2.5-4.5-5.5-5.9-8.8c-1.4-3.3-2.2-6.9-2.2-10.7c0-3.8,0.7-7.4,2.2-10.7
			c1.4-3.4,3.4-6.3,5.9-8.8c2.5-2.5,5.5-4.5,8.9-5.9c3.4-1.4,7.1-2.2,11-2.2c3.9,0,7.6,0.7,11,2.2c3.4,1.4,6.4,3.4,8.9,5.9
			c2.5,2.5,4.5,5.5,5.9,8.8c1.4,3.3,2.2,7,2.2,10.7C696.8,1187.8,696,1191.4,694.6,1194.8z"/>
		<path d="M725.8,1147.1c-1.1-0.8-2.3-1.2-3.6-1.2l-0.6,0c-1.4,0.2-2.5,0.7-3.5,1.6l-8.7,8.8c-0.9,1-1.4,2.3-1.4,3.7
			c0,1.5,0.6,2.8,1.7,3.9c1,1,2.3,1.5,4,1.5c0,0,0,0,0.1,0c1-0.1,1.9-0.3,2.7-0.9v52.1c0,1.5,0.6,2.8,1.7,3.9c1.1,1,2.4,1.6,3.9,1.6
			c1.5,0,2.8-0.6,3.9-1.6c1.1-1.1,1.7-2.4,1.7-3.9v-65.3c0-0.5-0.1-1-0.2-1.7C727.3,1148.7,726.7,1147.8,725.8,1147.1z"/>
		<path d="M705.1,1267.1c-2.1-4.6-4.9-8.7-8.5-12.1c-3.6-3.4-7.8-6.2-12.5-8.2c-9.6-4-21.1-4-30.6,0c-4.7,2-9,4.7-12.5,8.2
			c-3.6,3.5-6.4,7.5-8.5,12.1c-2.1,4.6-3.1,9.6-3.1,14.9c0,5.2,1,10.3,3.1,14.9c2.1,4.6,4.9,8.7,8.5,12.1c3.6,3.4,7.8,6.2,12.5,8.2
			c4.8,2,9.9,3,15.3,3c5.4,0,10.5-1,15.3-3c4.7-2,9-4.7,12.5-8.2c3.6-3.4,6.4-7.5,8.5-12.1c2.1-4.6,3.1-9.6,3.1-14.9
			C708.2,1276.7,707.2,1271.7,705.1,1267.1z M694.6,1292.6c-1.4,3.4-3.4,6.4-5.9,8.8c-2.5,2.5-5.5,4.5-8.9,5.9
			c-6.8,2.9-15.2,2.9-22,0c-3.4-1.4-6.4-3.4-8.9-5.9c-2.5-2.5-4.5-5.5-5.9-8.8c-1.4-3.3-2.2-6.9-2.2-10.7c0-3.8,0.7-7.4,2.2-10.7
			c1.4-3.4,3.4-6.3,5.9-8.8c2.5-2.5,5.5-4.5,8.9-5.9c3.4-1.4,7.1-2.2,11-2.2c3.9,0,7.6,0.7,11,2.2c3.4,1.4,6.4,3.4,8.9,5.9
			c2.5,2.5,4.5,5.5,5.9,8.8c1.4,3.3,2.2,7,2.2,10.7C696.8,1285.7,696,1289.3,694.6,1292.6z"/>
		<path d="M725.8,1245c-1.1-0.8-2.3-1.2-3.6-1.2l-0.6,0c-1.4,0.2-2.5,0.7-3.5,1.6l-8.7,8.8c-0.9,1-1.4,2.3-1.4,3.7
			c0,1.5,0.6,2.8,1.7,3.9c1,1,2.3,1.5,4,1.5c0,0,0,0,0.1,0c1-0.1,1.9-0.3,2.7-0.9v52.1c0,1.5,0.6,2.8,1.7,3.9c1.1,1,2.4,1.6,3.9,1.6
			c1.5,0,2.8-0.6,3.9-1.6c1.1-1.1,1.7-2.4,1.7-3.9v-65.3c0-0.5-0.1-1-0.2-1.7C727.3,1246.5,726.7,1245.7,725.8,1245z"/>
		<path d="M705.1,1375.4c-2.1-4.6-4.9-8.7-8.5-12.1c-3.6-3.4-7.8-6.2-12.5-8.2c-9.6-4-21.1-4-30.6,0c-4.7,2-9,4.7-12.5,8.2
			c-3.6,3.5-6.4,7.5-8.5,12.1c-2.1,4.6-3.1,9.6-3.1,14.9c0,5.2,1,10.3,3.1,14.9c2.1,4.6,4.9,8.7,8.5,12.1c3.6,3.4,7.8,6.2,12.5,8.2
			c4.8,2,9.9,3,15.3,3c5.4,0,10.5-1,15.3-3c4.7-2,9-4.7,12.5-8.2c3.6-3.4,6.4-7.5,8.5-12.1c2.1-4.6,3.1-9.6,3.1-14.9
			C708.2,1385.1,707.2,1380.1,705.1,1375.4z M694.6,1401c-1.4,3.4-3.4,6.4-5.9,8.8c-2.5,2.5-5.5,4.5-8.9,5.9c-6.8,2.9-15.2,2.9-22,0
			c-3.4-1.4-6.4-3.4-8.9-5.9c-2.5-2.5-4.5-5.5-5.9-8.8c-1.4-3.3-2.2-6.9-2.2-10.7c0-3.8,0.7-7.4,2.2-10.7c1.4-3.4,3.4-6.3,5.9-8.8
			c2.5-2.5,5.5-4.5,8.9-5.9c3.4-1.4,7.1-2.2,11-2.2c3.9,0,7.6,0.7,11,2.2c3.4,1.4,6.4,3.4,8.9,5.9c2.5,2.5,4.5,5.5,5.9,8.8
			c1.4,3.3,2.2,7,2.2,10.7C696.8,1394.1,696,1397.7,694.6,1401z"/>
		<path d="M725.8,1353.4c-1.1-0.8-2.3-1.2-3.6-1.2l-0.6,0c-1.4,0.2-2.5,0.7-3.5,1.6l-8.7,8.8c-0.9,1-1.4,2.3-1.4,3.7
			c0,1.5,0.6,2.8,1.7,3.9c1,1,2.3,1.5,4,1.5c0,0,0,0,0.1,0c1-0.1,1.9-0.3,2.7-0.9v52.1c0,1.5,0.6,2.8,1.7,3.9c1.1,1,2.4,1.6,3.9,1.6
			c1.5,0,2.8-0.6,3.9-1.6c1.1-1.1,1.7-2.4,1.7-3.9v-65.3c0-0.5-0.1-1-0.2-1.7C727.3,1354.9,726.7,1354,725.8,1353.4z"/>
		<path d="M621.6,1448.3c-1.1-0.8-2.3-1.2-3.6-1.2l-0.6,0c-1.4,0.2-2.5,0.7-3.5,1.6l-8.7,8.8c-0.9,1-1.4,2.3-1.4,3.7
			c0,1.5,0.6,2.8,1.7,3.9c1,1,2.3,1.5,4,1.5c0,0,0,0,0.1,0c1-0.1,1.9-0.3,2.7-0.9v52.1c0,1.5,0.6,2.8,1.7,3.9c1.1,1,2.4,1.6,3.9,1.6
			c1.5,0,2.8-0.6,3.9-1.6c1.1-1.1,1.7-2.4,1.7-3.9v-65.3c0-0.5-0.1-1-0.2-1.7C623.1,1449.8,622.5,1448.9,621.6,1448.3z"/>
		<path d="M684.1,1450c-9.6-4-21.1-4-30.6,0c-4.7,2-9,4.7-12.5,8.2c-3.6,3.5-6.4,7.5-8.5,12.1c-2.1,4.6-3.1,9.6-3.1,14.9
			c0,5.2,1,10.3,3.1,14.9c2.1,4.6,4.9,8.7,8.5,12.1c3.6,3.4,7.8,6.2,12.5,8.2c4.8,2,9.9,3,15.3,3c5.4,0,10.5-1,15.3-3
			c4.7-2,9-4.7,12.5-8.2c3.6-3.4,6.4-7.5,8.5-12.1c2.1-4.6,3.1-9.6,3.1-14.9c0-5.2-1-10.2-3.1-14.9c-2.1-4.6-4.9-8.7-8.5-12.1
			C693,1454.8,688.8,1452,684.1,1450z M694.6,1495.9c-1.4,3.4-3.4,6.4-5.9,8.8c-2.5,2.5-5.5,4.5-8.9,5.9c-6.8,2.9-15.2,2.9-22,0
			c-3.4-1.4-6.4-3.4-8.9-5.9c-2.5-2.5-4.5-5.5-5.9-8.8c-1.4-3.3-2.2-6.9-2.2-10.7c0-3.8,0.7-7.4,2.2-10.7c1.4-3.4,3.4-6.3,5.9-8.8
			c2.5-2.5,5.5-4.5,8.9-5.9c3.4-1.4,7.1-2.2,11-2.2c3.9,0,7.6,0.7,11,2.2c3.4,1.4,6.4,3.4,8.9,5.9c2.5,2.5,4.5,5.5,5.9,8.8
			c1.4,3.3,2.2,7,2.2,10.7C696.8,1488.9,696,1492.5,694.6,1495.9z"/>
		<path d="M725.8,1448.3c-1.1-0.8-2.3-1.2-3.6-1.2l-0.6,0c-1.4,0.2-2.5,0.7-3.5,1.6l-8.7,8.8c-0.9,1-1.4,2.3-1.4,3.7
			c0,1.5,0.6,2.8,1.7,3.9c1,1,2.3,1.5,4,1.5c0,0,0,0,0.1,0c1-0.1,1.9-0.3,2.7-0.9v52.1c0,1.5,0.6,2.8,1.7,3.9c1.1,1,2.4,1.6,3.9,1.6
			c1.5,0,2.8-0.6,3.9-1.6c1.1-1.1,1.7-2.4,1.7-3.9v-65.3c0-0.5-0.1-1-0.2-1.7C727.3,1449.8,726.7,1448.9,725.8,1448.3z"/>
		<path d="M621.6,1549.4c-1.1-0.8-2.3-1.2-3.6-1.2l-0.6,0c-1.4,0.2-2.5,0.7-3.5,1.6l-8.7,8.8c-0.9,1-1.4,2.3-1.4,3.7
			c0,1.5,0.6,2.8,1.7,3.9c1,1,2.3,1.5,4,1.5c0,0,0,0,0.1,0c1-0.1,1.9-0.3,2.7-0.9v52.1c0,1.5,0.6,2.8,1.7,3.9c1.1,1,2.4,1.6,3.9,1.6
			c1.5,0,2.8-0.6,3.9-1.6c1.1-1.1,1.7-2.4,1.7-3.9v-65.3c0-0.5-0.1-1-0.2-1.7C623.1,1550.9,622.5,1550.1,621.6,1549.4z"/>
		<path d="M696.6,1559.3c-3.6-3.4-7.8-6.2-12.5-8.2c-9.6-4-21.1-4-30.6,0c-4.7,2-9,4.7-12.5,8.2c-3.6,3.5-6.4,7.5-8.5,12.1
			c-2.1,4.6-3.1,9.6-3.1,14.9c0,5.2,1,10.3,3.1,14.9c2.1,4.6,4.9,8.7,8.5,12.1c3.6,3.4,7.8,6.2,12.5,8.2c4.8,2,9.9,3,15.3,3
			c5.4,0,10.5-1,15.3-3c4.7-2,9-4.7,12.5-8.2c3.6-3.4,6.4-7.5,8.5-12.1c2.1-4.6,3.1-9.6,3.1-14.9c0-5.2-1-10.2-3.1-14.9
			C703,1566.9,700.2,1562.8,696.6,1559.3z M694.6,1597c-1.4,3.4-3.4,6.4-5.9,8.8c-2.5,2.5-5.5,4.5-8.9,5.9c-6.8,2.9-15.2,2.9-22,0
			c-3.4-1.4-6.4-3.4-8.9-5.9c-2.5-2.5-4.5-5.5-5.9-8.8c-1.4-3.3-2.2-6.9-2.2-10.7c0-3.8,0.7-7.4,2.2-10.7c1.4-3.4,3.4-6.3,5.9-8.8
			c2.5-2.5,5.5-4.5,8.9-5.9c3.4-1.4,7.1-2.2,11-2.2c3.9,0,7.6,0.7,11,2.2c3.4,1.4,6.4,3.4,8.9,5.9c2.5,2.5,4.5,5.5,5.9,8.8
			c1.4,3.3,2.2,7,2.2,10.7C696.8,1590.1,696,1593.7,694.6,1597z"/>
		<path d="M511.8,1549.4c-1.1-0.8-2.3-1.2-3.6-1.2l-0.6,0c-1.4,0.2-2.5,0.7-3.5,1.6l-8.7,8.8c-0.9,1-1.4,2.3-1.4,3.7
			c0,1.5,0.6,2.8,1.7,3.9c1,1,2.3,1.5,4,1.5c0,0,0,0,0.1,0c1-0.1,1.9-0.3,2.7-0.9v52.1c0,1.5,0.6,2.8,1.7,3.9c1.1,1,2.4,1.6,3.9,1.6
			c1.5,0,2.8-0.6,3.9-1.6c1.1-1.1,1.7-2.4,1.7-3.9v-65.3c0-0.5-0.1-1-0.2-1.7C513.3,1550.9,512.7,1550.1,511.8,1549.4z"/>
		<path d="M586.8,1559.3c-3.6-3.4-7.8-6.2-12.5-8.2c-9.6-4-21.1-4-30.6,0c-4.7,2-9,4.7-12.5,8.2c-3.6,3.5-6.4,7.5-8.5,12.1
			c-2.1,4.6-3.1,9.6-3.1,14.9c0,5.2,1,10.3,3.1,14.9c2.1,4.6,4.9,8.7,8.5,12.1c3.6,3.4,7.8,6.2,12.5,8.2c4.8,2,9.9,3,15.3,3
			c5.4,0,10.5-1,15.3-3c4.7-2,9-4.7,12.5-8.2c3.6-3.4,6.4-7.5,8.5-12.1c2.1-4.6,3.1-9.6,3.1-14.9c0-5.2-1-10.2-3.1-14.9
			C593.2,1566.9,590.4,1562.8,586.8,1559.3z M584.8,1597c-1.4,3.4-3.4,6.4-5.9,8.8c-2.5,2.5-5.5,4.5-8.9,5.9c-6.8,2.9-15.2,2.9-22,0
			c-3.4-1.4-6.4-3.4-8.9-5.9c-2.5-2.5-4.5-5.5-5.9-8.8c-1.4-3.3-2.2-6.9-2.2-10.7c0-3.8,0.7-7.4,2.2-10.7c1.4-3.4,3.4-6.3,5.9-8.8
			c2.5-2.5,5.5-4.5,8.9-5.9c3.4-1.4,7.1-2.2,11-2.2c3.9,0,7.6,0.7,11,2.2c3.4,1.4,6.4,3.4,8.9,5.9c2.5,2.5,4.5,5.5,5.9,8.8
			c1.4,3.3,2.2,7,2.2,10.7C587,1590.1,586.2,1593.7,584.8,1597z"/>
		<path d="M402,1549.4c-1.1-0.8-2.3-1.2-3.6-1.2l-0.6,0c-1.4,0.2-2.5,0.7-3.5,1.6l-8.7,8.8c-0.9,1-1.4,2.3-1.4,3.7
			c0,1.5,0.6,2.8,1.7,3.9c1,1,2.3,1.5,4,1.5c0,0,0,0,0.1,0c1-0.1,1.9-0.3,2.7-0.9v52.1c0,1.5,0.6,2.8,1.7,3.9c1.1,1,2.4,1.6,3.9,1.6
			c1.5,0,2.8-0.6,3.9-1.6c1.1-1.1,1.7-2.4,1.7-3.9v-65.3c0-0.5-0.1-1-0.2-1.7C403.5,1550.9,402.9,1550.1,402,1549.4z"/>
		<path d="M477,1559.3c-3.6-3.4-7.8-6.2-12.5-8.2c-9.6-4-21.1-4-30.6,0c-4.7,2-9,4.7-12.5,8.2c-3.6,3.5-6.4,7.5-8.5,12.1
			c-2.1,4.6-3.1,9.6-3.1,14.9c0,5.2,1,10.3,3.1,14.9c2.1,4.6,4.9,8.7,8.5,12.1s7.8,6.2,12.5,8.2c4.8,2,9.9,3,15.3,3
			c5.4,0,10.5-1,15.3-3c4.7-2,9-4.7,12.5-8.2s6.4-7.5,8.5-12.1c2.1-4.6,3.1-9.6,3.1-14.9c0-5.2-1-10.2-3.1-14.9
			C483.4,1566.9,480.6,1562.8,477,1559.3z M475,1597c-1.4,3.4-3.4,6.4-5.9,8.8c-2.5,2.5-5.5,4.5-8.9,5.9c-6.7,2.9-15.2,2.9-22,0
			c-3.4-1.4-6.4-3.4-8.9-5.9c-2.5-2.5-4.5-5.5-5.9-8.8c-1.4-3.3-2.2-6.9-2.2-10.7c0-3.8,0.7-7.4,2.2-10.7c1.4-3.4,3.4-6.3,5.9-8.8
			c2.5-2.5,5.5-4.5,8.9-5.9c3.4-1.4,7.1-2.2,11-2.2c3.9,0,7.6,0.7,11,2.2c3.4,1.4,6.4,3.4,8.9,5.9c2.5,2.5,4.5,5.5,5.9,8.8
			c1.4,3.3,2.2,7,2.2,10.7C477.2,1590.1,476.4,1593.7,475,1597z"/>
		<path d="M292.2,1549.4c-1.1-0.8-2.3-1.2-3.6-1.2l-0.6,0c-1.4,0.2-2.5,0.7-3.5,1.6l-8.7,8.8c-0.9,1-1.4,2.3-1.4,3.7
			c0,1.5,0.6,2.8,1.7,3.9c1,1,2.3,1.5,4,1.5c0,0,0,0,0.1,0c1-0.1,1.9-0.3,2.7-0.9v52.1c0,1.5,0.6,2.8,1.7,3.9c1.1,1,2.4,1.6,3.9,1.6
			c1.5,0,2.8-0.6,3.9-1.6c1.1-1.1,1.7-2.4,1.7-3.9v-65.3c0-0.5-0.1-1-0.2-1.7C293.7,1550.9,293.1,1550.1,292.2,1549.4z"/>
		<path d="M367.2,1559.3c-3.6-3.4-7.8-6.2-12.5-8.2c-9.6-4-21.1-4-30.6,0c-4.7,2-9,4.7-12.5,8.2c-3.6,3.5-6.4,7.5-8.5,12.1
			c-2.1,4.6-3.1,9.6-3.1,14.9c0,5.2,1,10.3,3.1,14.9c2.1,4.6,4.9,8.7,8.5,12.1s7.8,6.2,12.5,8.2c4.8,2,9.9,3,15.3,3
			c5.4,0,10.5-1,15.3-3c4.7-2,9-4.7,12.5-8.2c3.6-3.4,6.4-7.5,8.5-12.1c2.1-4.6,3.1-9.6,3.1-14.9c0-5.2-1-10.2-3.1-14.9
			C373.6,1566.9,370.8,1562.8,367.2,1559.3z M365.2,1597c-1.4,3.4-3.4,6.4-5.9,8.8c-2.5,2.5-5.5,4.5-8.9,5.9c-6.8,2.9-15.2,2.9-22,0
			c-3.4-1.4-6.4-3.4-8.9-5.9c-2.5-2.5-4.5-5.5-5.9-8.8c-1.4-3.3-2.2-6.9-2.2-10.7c0-3.8,0.7-7.4,2.2-10.7c1.4-3.4,3.4-6.3,5.9-8.8
			c2.5-2.5,5.5-4.5,8.9-5.9c3.4-1.4,7.1-2.2,11-2.2s7.6,0.7,11,2.2c3.4,1.4,6.4,3.4,8.9,5.9c2.5,2.5,4.5,5.5,5.9,8.8
			c1.4,3.3,2.2,7,2.2,10.7C367.4,1590.1,366.6,1593.7,365.2,1597z"/>
		<path d="M725.8,1549.4c-1.1-0.8-2.3-1.2-3.6-1.2l-0.6,0c-1.4,0.2-2.5,0.7-3.5,1.6l-8.7,8.8c-0.9,1-1.4,2.3-1.4,3.7
			c0,1.5,0.6,2.8,1.7,3.9c1,1,2.3,1.5,4,1.5c0,0,0,0,0.1,0c1-0.1,1.9-0.3,2.7-0.9v52.1c0,1.5,0.6,2.8,1.7,3.9c1.1,1,2.4,1.6,3.9,1.6
			c1.5,0,2.8-0.6,3.9-1.6c1.1-1.1,1.7-2.4,1.7-3.9v-65.3c0-0.5-0.1-1-0.2-1.7C727.3,1550.9,726.7,1550.1,725.8,1549.4z"/>
	</g>
	<g>
		<path fill="#6DCACB" d="M934.4,637.5h-24.1c2.2,11.3,12.2,19.9,24.1,19.9c13.5,0,24.6-11,24.6-24.6c0-5.8-2.1-11-5.4-15.2
			L938,635.9C937.1,636.9,935.8,637.5,934.4,637.5z"/>
		<path fill="#6DCACB" d="M1114.9,498c-2.7-1-5.6-1.7-8.7-1.7c-11.9,0-21.9,8.6-24.1,19.9h21.5L1114.9,498z"/>
		<path fill="#6DCACB" d="M1106.3,545.5c13.6,0,24.6-11,24.6-24.6c0-7.1-3.1-13.5-7.9-17.9l-12.7,20.4c-0.9,1.4-2.4,2.2-4,2.2h-24.1
			C1084.4,537,1094.3,545.5,1106.3,545.5z"/>
		<path fill="#6DCACB" d="M1026.4,517.9c0.9-1,2.2-1.6,3.6-1.6h24.1c-2.2-11.3-12.2-19.9-24.1-19.9c-13.6,0-24.6,11-24.6,24.6
			c0,5.8,2.1,11,5.4,15.2L1026.4,517.9z"/>
		<path fill="#6DCACB" d="M1168.3,429.9c2.7,1,5.6,1.7,8.7,1.7c11.9,0,21.9-8.6,24.1-19.9h-21.5L1168.3,429.9z"/>
		<path fill="#6DCACB" d="M1018,542.3c3.6,2,7.6,3.3,12,3.3c11.9,0,21.9-8.6,24.1-19.9h-21.9L1018,542.3z"/>
		<path fill="#6DCACB" d="M1172.9,404.5c0.9-1.4,2.4-2.2,4-2.2h24.1c-2.2-11.3-12.2-19.9-24.1-19.9c-13.6,0-24.6,11-24.6,24.6
			c0,7.1,3.1,13.5,7.9,17.9L1172.9,404.5z"/>
		<path fill="#6DCACB" d="M1347.4,411.7h-24.1c2.2,11.3,12.2,19.9,24.1,19.9c13.5,0,24.6-11,24.6-24.6c0-13.6-11-24.6-24.6-24.6
			c-11.9,0-21.9,8.6-24.1,19.9h24.1c2.6,0,4.7,2.1,4.7,4.7S1350,411.7,1347.4,411.7z"/>
		<path fill="#6DCACB" d="M848.7,637.5h-24.1c-2.6,0-4.7-2.1-4.7-4.7s2.1-4.7,4.7-4.7h24.1c-2.2-11.3-12.2-19.9-24.1-19.9
			c-13.6,0-24.6,11-24.6,24.6c0,13.5,11,24.6,24.6,24.6C836.5,657.4,846.5,648.8,848.7,637.5z"/>
		<path fill="#6DCACB" d="M946.4,611.5c-3.6-2-7.6-3.3-12-3.3c-11.9,0-21.9,8.6-24.1,19.9h21.9L946.4,611.5z"/>
		<path d="M940.5,283.7C940.5,283.7,940.5,283.7,940.5,283.7c1.1-0.1,2.1-0.4,3-0.9v55.3c0,1.6,0.6,3,1.8,4.1
			c1.1,1.1,2.6,1.7,4.1,1.7c1.6,0,3-0.6,4.1-1.7c1.2-1.1,1.8-2.6,1.8-4.1v-69.3c0-0.5-0.1-1.1-0.2-1.8c-0.3-1.1-0.9-2-1.9-2.7
			c-1.2-0.9-2.5-1.3-3.8-1.3l-0.7,0c-1.4,0.2-2.7,0.7-3.7,1.7l-9.2,9.3c-0.9,1.1-1.4,2.5-1.4,3.9c0,1.6,0.6,3,1.8,4.1
			C937.3,283.2,938.7,283.7,940.5,283.7z"/>
		<path d="M857.2,332.1c3.8,3.7,8.3,6.6,13.3,8.7c5,2.1,10.5,3.2,16.2,3.2c5.7,0,11.2-1.1,16.2-3.2c5-2.1,9.5-5,13.3-8.7
			c3.8-3.7,6.8-8,9-12.9c2.2-4.9,3.3-10.2,3.3-15.8c0-5.6-1.1-10.9-3.3-15.8c-2.2-4.9-5.2-9.2-9-12.9c-3.8-3.7-8.3-6.6-13.3-8.7
			c-10.1-4.2-22.4-4.2-32.5,0c-5,2.1-9.5,5-13.3,8.7c-3.8,3.7-6.8,8-9,12.9c-2.2,4.9-3.3,10.2-3.3,15.8c0,5.6,1.1,10.9,3.3,15.8
			C850.4,324.1,853.4,328.4,857.2,332.1z M859.4,292.1c1.5-3.6,3.6-6.7,6.3-9.4c2.6-2.7,5.8-4.8,9.4-6.3c3.6-1.5,7.5-2.3,11.7-2.3
			s8.1,0.8,11.7,2.3c3.6,1.5,6.8,3.6,9.4,6.3c2.7,2.7,4.8,5.8,6.3,9.4c1.5,3.6,2.3,7.4,2.3,11.4c0,4-0.8,7.8-2.3,11.4
			c-1.5,3.6-3.7,6.7-6.3,9.4c-2.7,2.7-5.8,4.8-9.4,6.3c-7.2,3-16.1,3-23.3,0c-3.6-1.5-6.8-3.6-9.4-6.3c-2.7-2.7-4.8-5.8-6.3-9.4
			c-1.5-3.5-2.3-7.4-2.3-11.4C857.1,299.4,857.8,295.6,859.4,292.1z"/>
		<path d="M1071.2,283.7C1071.2,283.7,1071.2,283.7,1071.2,283.7c1.1-0.1,2.1-0.4,3-0.9v55.3c0,1.6,0.6,3,1.8,4.1
			c1.1,1.1,2.6,1.7,4.1,1.7c1.6,0,3-0.6,4.1-1.7c1.2-1.1,1.8-2.6,1.8-4.1v-69.3c0-0.5-0.1-1.1-0.2-1.8c-0.3-1.1-0.9-2-1.9-2.7
			c-1.2-0.9-2.5-1.3-3.8-1.3l-0.7,0c-1.4,0.2-2.7,0.7-3.7,1.7l-9.2,9.3c-0.9,1.1-1.4,2.5-1.4,3.9c0,1.6,0.6,3,1.8,4.1
			C1068,283.2,1069.3,283.7,1071.2,283.7z"/>
		<path d="M987.9,332.1c3.8,3.7,8.3,6.6,13.3,8.7c5,2.1,10.5,3.2,16.2,3.2c5.7,0,11.2-1.1,16.2-3.2c5-2.1,9.5-5,13.3-8.7
			c3.8-3.7,6.8-8,9-12.9c2.2-4.9,3.3-10.2,3.3-15.8c0-5.6-1.1-10.9-3.3-15.8c-2.2-4.9-5.2-9.2-9-12.9c-3.8-3.7-8.3-6.6-13.3-8.7
			c-10.1-4.2-22.4-4.2-32.5,0c-5,2.1-9.5,5-13.3,8.7c-3.8,3.7-6.8,8-9,12.9c-2.2,4.9-3.3,10.2-3.3,15.8c0,5.6,1.1,10.9,3.3,15.8
			C981.1,324.1,984.1,328.4,987.9,332.1z M990,292.1c1.5-3.6,3.6-6.7,6.3-9.4c2.6-2.7,5.8-4.8,9.4-6.3c3.6-1.5,7.5-2.3,11.7-2.3
			c4.1,0,8.1,0.8,11.7,2.3c3.6,1.5,6.8,3.6,9.4,6.3c2.7,2.7,4.8,5.8,6.3,9.4c1.5,3.6,2.3,7.4,2.3,11.4c0,4-0.8,7.8-2.3,11.4
			c-1.5,3.6-3.7,6.7-6.3,9.4c-2.7,2.7-5.8,4.8-9.4,6.3c-7.2,3-16.1,3-23.3,0c-3.6-1.5-6.8-3.6-9.4-6.3c-2.7-2.7-4.8-5.8-6.3-9.4
			c-1.5-3.5-2.3-7.4-2.3-11.4C987.7,299.4,988.5,295.6,990,292.1z"/>
		<path d="M940.5,392.5C940.5,392.5,940.5,392.5,940.5,392.5c1.1-0.1,2.1-0.4,3-0.9v55.3c0,1.6,0.6,3,1.8,4.1
			c1.1,1.1,2.6,1.7,4.1,1.7c1.6,0,3-0.6,4.1-1.7c1.2-1.1,1.8-2.6,1.8-4.1v-69.3c0-0.5-0.1-1.1-0.2-1.8c-0.3-1.1-0.9-2-1.9-2.7
			c-1.2-0.9-2.5-1.3-3.8-1.3l-0.7,0c-1.4,0.2-2.7,0.7-3.7,1.7l-9.2,9.3c-0.9,1.1-1.4,2.5-1.4,3.9c0,1.6,0.6,3,1.8,4.1
			C937.3,391.9,938.7,392.5,940.5,392.5z"/>
		<path d="M857.2,440.8c3.8,3.7,8.3,6.6,13.3,8.7c5,2.1,10.5,3.2,16.2,3.2c5.7,0,11.2-1.1,16.2-3.2c5-2.1,9.5-5,13.3-8.7
			c3.8-3.7,6.8-8,9-12.9c2.2-4.9,3.3-10.2,3.3-15.8c0-5.6-1.1-10.9-3.3-15.8c-2.2-4.9-5.2-9.2-9-12.9c-3.8-3.7-8.3-6.6-13.3-8.7
			c-10.1-4.2-22.4-4.2-32.5,0c-5,2.1-9.5,5-13.3,8.7c-3.8,3.7-6.8,8-9,12.9c-2.2,4.9-3.3,10.2-3.3,15.8c0,5.6,1.1,10.9,3.3,15.8
			C850.4,432.9,853.4,437.2,857.2,440.8z M859.4,400.8c1.5-3.6,3.6-6.7,6.3-9.4c2.6-2.7,5.8-4.8,9.4-6.3c3.6-1.5,7.5-2.3,11.7-2.3
			s8.1,0.8,11.7,2.3c3.6,1.5,6.8,3.6,9.4,6.3c2.7,2.7,4.8,5.8,6.3,9.4c1.5,3.6,2.3,7.4,2.3,11.4c0,4-0.8,7.8-2.3,11.4
			c-1.5,3.6-3.7,6.7-6.3,9.4c-2.7,2.7-5.8,4.8-9.4,6.3c-7.2,3-16.1,3-23.3,0c-3.6-1.5-6.8-3.6-9.4-6.3c-2.7-2.7-4.8-5.8-6.3-9.4
			c-1.5-3.5-2.3-7.4-2.3-11.4C857.1,408.2,857.8,404.4,859.4,400.8z"/>
		<path d="M1071.2,392.5C1071.2,392.5,1071.2,392.5,1071.2,392.5c1.1-0.1,2.1-0.4,3-0.9v55.3c0,1.6,0.6,3,1.8,4.1
			c1.1,1.1,2.6,1.7,4.1,1.7c1.6,0,3-0.6,4.1-1.7c1.2-1.1,1.8-2.6,1.8-4.1v-69.3c0-0.5-0.1-1.1-0.2-1.8c-0.3-1.1-0.9-2-1.9-2.7
			c-1.2-0.9-2.5-1.3-3.8-1.3l-0.7,0c-1.4,0.2-2.7,0.7-3.7,1.7l-9.2,9.3c-0.9,1.1-1.4,2.5-1.4,3.9c0,1.6,0.6,3,1.8,4.1
			C1068,391.9,1069.3,392.5,1071.2,392.5z"/>
		<path d="M987.9,440.8c3.8,3.7,8.3,6.6,13.3,8.7c5,2.1,10.5,3.2,16.2,3.2c5.7,0,11.2-1.1,16.2-3.2c5-2.1,9.5-5,13.3-8.7
			c3.8-3.7,6.8-8,9-12.9c2.2-4.9,3.3-10.2,3.3-15.8c0-5.6-1.1-10.9-3.3-15.8c-2.2-4.9-5.2-9.2-9-12.9c-3.8-3.7-8.3-6.6-13.3-8.7
			c-10.1-4.2-22.4-4.2-32.5,0c-5,2.1-9.5,5-13.3,8.7c-3.8,3.7-6.8,8-9,12.9c-2.2,4.9-3.3,10.2-3.3,15.8c0,5.6,1.1,10.9,3.3,15.8
			C981.1,432.9,984.1,437.2,987.9,440.8z M990,400.8c1.5-3.6,3.6-6.7,6.3-9.4c2.6-2.7,5.8-4.8,9.4-6.3c3.6-1.5,7.5-2.3,11.7-2.3
			c4.1,0,8.1,0.8,11.7,2.3c3.6,1.5,6.8,3.6,9.4,6.3c2.7,2.7,4.8,5.8,6.3,9.4c1.5,3.6,2.3,7.4,2.3,11.4c0,4-0.8,7.8-2.3,11.4
			c-1.5,3.6-3.7,6.7-6.3,9.4c-2.7,2.7-5.8,4.8-9.4,6.3c-7.2,3-16.1,3-23.3,0c-3.6-1.5-6.8-3.6-9.4-6.3c-2.7-2.7-4.8-5.8-6.3-9.4
			c-1.5-3.5-2.3-7.4-2.3-11.4C987.7,408.2,988.5,404.4,990,400.8z"/>
		<path d="M940.5,501.2C940.5,501.2,940.5,501.2,940.5,501.2c1.1-0.1,2.1-0.4,3-0.9v55.3c0,1.6,0.6,3,1.8,4.1
			c1.1,1.1,2.6,1.7,4.1,1.7c1.6,0,3-0.6,4.1-1.7c1.2-1.1,1.8-2.6,1.8-4.1v-69.3c0-0.5-0.1-1.1-0.2-1.8c-0.3-1.1-0.9-2-1.9-2.7
			c-1.2-0.9-2.5-1.3-3.8-1.3l-0.7,0c-1.4,0.2-2.7,0.7-3.7,1.7l-9.2,9.3c-0.9,1.1-1.4,2.5-1.4,3.9c0,1.6,0.6,3,1.8,4.1
			C937.3,500.7,938.7,501.2,940.5,501.2z"/>
		<path d="M857.2,549.6c3.8,3.7,8.3,6.6,13.3,8.7c5,2.1,10.5,3.2,16.2,3.2c5.7,0,11.2-1.1,16.2-3.2c5-2.1,9.5-5,13.3-8.7
			c3.8-3.7,6.8-8,9-12.9c2.2-4.9,3.3-10.2,3.3-15.8c0-5.6-1.1-10.9-3.3-15.8c-2.2-4.9-5.2-9.2-9-12.9c-3.8-3.7-8.3-6.6-13.3-8.7
			c-10.1-4.2-22.4-4.2-32.5,0c-5,2.1-9.5,5-13.3,8.7c-3.8,3.7-6.8,8-9,12.9c-2.2,4.9-3.3,10.2-3.3,15.8c0,5.6,1.1,10.9,3.3,15.8
			C850.4,541.6,853.4,545.9,857.2,549.6z M859.4,509.6c1.5-3.6,3.6-6.7,6.3-9.4c2.6-2.7,5.8-4.8,9.4-6.3c3.6-1.5,7.5-2.3,11.7-2.3
			s8.1,0.8,11.7,2.3c3.6,1.5,6.8,3.6,9.4,6.3c2.7,2.7,4.8,5.8,6.3,9.4c1.5,3.6,2.3,7.4,2.3,11.4c0,4-0.8,7.8-2.3,11.4
			c-1.5,3.6-3.7,6.7-6.3,9.4c-2.7,2.7-5.8,4.8-9.4,6.3c-7.2,3-16.1,3-23.3,0c-3.6-1.5-6.8-3.6-9.4-6.3c-2.7-2.6-4.8-5.8-6.3-9.4
			c-1.5-3.5-2.3-7.4-2.3-11.4C857.1,517,857.8,513.1,859.4,509.6z"/>
		<path d="M1201.9,283.7C1201.9,283.7,1201.9,283.7,1201.9,283.7c1.1-0.1,2.1-0.4,3-0.9v55.3c0,1.6,0.6,3,1.8,4.1
			c1.1,1.1,2.6,1.7,4.1,1.7c1.6,0,3-0.6,4.1-1.7c1.2-1.1,1.8-2.6,1.8-4.1v-69.3c0-0.5-0.1-1.1-0.2-1.8c-0.3-1.1-0.9-2-1.9-2.7
			c-1.2-0.9-2.5-1.3-3.8-1.3l-0.7,0c-1.4,0.2-2.7,0.7-3.7,1.7l-9.2,9.3c-0.9,1.1-1.4,2.5-1.4,3.9c0,1.6,0.6,3,1.8,4.1
			C1198.7,283.2,1200,283.7,1201.9,283.7z"/>
		<path d="M1118.6,332.1c3.8,3.7,8.3,6.6,13.3,8.7c5,2.1,10.5,3.2,16.2,3.2c5.7,0,11.2-1.1,16.2-3.2c5-2.1,9.5-5,13.3-8.7
			c3.8-3.7,6.8-8,9-12.9c2.2-4.9,3.3-10.2,3.3-15.8c0-5.6-1.1-10.9-3.3-15.8c-2.2-4.9-5.2-9.2-9-12.9c-3.8-3.7-8.3-6.6-13.3-8.7
			c-10.1-4.2-22.4-4.2-32.5,0c-5,2.1-9.5,5-13.3,8.7c-3.8,3.7-6.8,8-9,12.9c-2.2,4.9-3.3,10.2-3.3,15.8c0,5.6,1.1,10.9,3.3,15.8
			C1111.7,324.1,1114.8,328.4,1118.6,332.1z M1120.7,292.1c1.5-3.6,3.6-6.7,6.3-9.4c2.6-2.7,5.8-4.8,9.4-6.3
			c3.6-1.5,7.5-2.3,11.7-2.3s8.1,0.8,11.7,2.3c3.6,1.5,6.8,3.6,9.4,6.3c2.7,2.7,4.8,5.8,6.3,9.4c1.5,3.6,2.3,7.4,2.3,11.4
			c0,4-0.8,7.8-2.3,11.4c-1.5,3.6-3.7,6.7-6.3,9.4c-2.7,2.7-5.8,4.8-9.4,6.3c-7.2,3-16.1,3-23.3,0c-3.6-1.5-6.8-3.6-9.4-6.3
			c-2.7-2.7-4.8-5.8-6.3-9.4c-1.5-3.5-2.3-7.4-2.3-11.4C1118.4,299.4,1119.2,295.6,1120.7,292.1z"/>
		<path d="M1332.5,283.7C1332.6,283.7,1332.6,283.7,1332.5,283.7c1.1-0.1,2.1-0.4,3-0.9v55.3c0,1.6,0.6,3,1.8,4.1
			c1.1,1.1,2.6,1.7,4.1,1.7c1.6,0,3-0.6,4.1-1.7c1.2-1.1,1.8-2.6,1.8-4.1v-69.3c0-0.5-0.1-1.1-0.2-1.8c-0.3-1.1-0.9-2-1.9-2.7
			c-1.2-0.9-2.5-1.3-3.8-1.3l-0.7,0c-1.4,0.2-2.7,0.7-3.7,1.7l-9.2,9.3c-0.9,1.1-1.4,2.5-1.4,3.9c0,1.6,0.6,3,1.8,4.1
			C1329.3,283.2,1330.7,283.7,1332.5,283.7z"/>
		<path d="M1249.3,332.1c3.8,3.7,8.3,6.6,13.3,8.7c5,2.1,10.5,3.2,16.2,3.2c5.7,0,11.2-1.1,16.2-3.2c5-2.1,9.5-5,13.3-8.7
			c3.8-3.7,6.8-8,9-12.9c2.2-4.9,3.3-10.2,3.3-15.8c0-5.6-1.1-10.9-3.3-15.8c-2.2-4.9-5.2-9.2-9-12.9c-3.8-3.7-8.3-6.6-13.3-8.7
			c-10.1-4.2-22.4-4.2-32.5,0c-5,2.1-9.5,5-13.3,8.7c-3.8,3.7-6.8,8-9,12.9c-2.2,4.9-3.3,10.2-3.3,15.8c0,5.6,1.1,10.9,3.3,15.8
			C1242.4,324.1,1245.5,328.4,1249.3,332.1z M1251.4,292.1c1.5-3.6,3.6-6.7,6.3-9.4c2.6-2.7,5.8-4.8,9.4-6.3
			c3.6-1.5,7.5-2.3,11.7-2.3s8.1,0.8,11.7,2.3c3.6,1.5,6.8,3.6,9.4,6.3c2.7,2.7,4.8,5.8,6.3,9.4c1.5,3.6,2.3,7.4,2.3,11.4
			c0,4-0.8,7.8-2.3,11.4c-1.5,3.6-3.7,6.7-6.3,9.4c-2.7,2.7-5.8,4.8-9.4,6.3c-7.2,3-16.1,3-23.3,0c-3.6-1.5-6.8-3.6-9.4-6.3
			c-2.7-2.7-4.8-5.8-6.3-9.4c-1.5-3.5-2.3-7.4-2.3-11.4C1249.1,299.4,1249.9,295.6,1251.4,292.1z"/>
		<path d="M945.3,780c1.1,1.1,2.6,1.7,4.1,1.7c1.6,0,3-0.6,4.1-1.7c1.2-1.1,1.8-2.6,1.8-4.1v-69.3c0-0.5-0.1-1.1-0.2-1.8
			c-0.3-1.1-0.9-2-1.9-2.7c-1.2-0.9-2.5-1.3-3.8-1.3l-0.7,0c-1.4,0.2-2.7,0.7-3.7,1.7l-9.2,9.3c-0.9,1.1-1.4,2.5-1.4,3.9
			c0,1.6,0.6,3,1.8,4.1c1.1,1,2.4,1.6,4.3,1.6c0,0,0,0,0.1,0c1.1-0.1,2.1-0.4,2.9-0.9v55.3C943.5,777.5,944.1,778.9,945.3,780z"/>
		<path d="M903,703.9c-10.1-4.2-22.4-4.2-32.5,0c-5,2.1-9.5,5-13.3,8.7c-3.8,3.7-6.8,8-9,12.9c-2.2,4.9-3.3,10.2-3.3,15.8
			c0,5.6,1.1,10.9,3.3,15.8c2.2,4.9,5.2,9.2,9,12.9c3.8,3.7,8.3,6.6,13.3,8.7c5,2.1,10.5,3.2,16.2,3.2c5.7,0,11.2-1.1,16.2-3.2
			c5-2.1,9.5-5,13.3-8.7c3.8-3.7,6.8-8,9-12.9c2.2-4.9,3.3-10.2,3.3-15.8c0-5.6-1.1-10.9-3.3-15.8c-2.2-4.9-5.2-9.2-9-12.9
			C912.5,708.9,908,706,903,703.9z M914.1,752.6c-1.5,3.6-3.7,6.7-6.3,9.4c-2.7,2.7-5.8,4.8-9.4,6.3c-7.2,3-16.1,3-23.3,0
			c-3.6-1.5-6.8-3.6-9.4-6.3c-2.7-2.7-4.8-5.8-6.3-9.4c-1.5-3.5-2.3-7.4-2.3-11.4c0-4,0.8-7.8,2.3-11.4c1.5-3.6,3.6-6.7,6.3-9.4
			c2.6-2.7,5.8-4.8,9.4-6.3c3.6-1.5,7.5-2.3,11.7-2.3s8.1,0.8,11.7,2.3c3.6,1.5,6.8,3.6,9.4,6.3c2.7,2.7,4.8,5.8,6.3,9.4
			c1.5,3.6,2.3,7.4,2.3,11.4C916.4,745.2,915.6,749,914.1,752.6z"/>
		<path d="M1075.9,780c1.1,1.1,2.6,1.7,4.1,1.7c1.6,0,3-0.6,4.1-1.7c1.2-1.1,1.8-2.6,1.8-4.1v-69.3c0-0.5-0.1-1.1-0.2-1.8
			c-0.3-1.1-0.9-2-1.9-2.7c-1.2-0.9-2.5-1.3-3.8-1.3l-0.7,0c-1.4,0.2-2.7,0.7-3.7,1.7l-9.2,9.3c-0.9,1.1-1.4,2.5-1.4,3.9
			c0,1.6,0.6,3,1.8,4.1c1.1,1,2.4,1.6,4.3,1.6c0,0,0,0,0.1,0c1.1-0.1,2.1-0.4,2.9-0.9v55.3C1074.1,777.5,1074.8,778.9,1075.9,780z"
			/>
		<path d="M1033.7,703.9c-10.1-4.2-22.4-4.2-32.5,0c-5,2.1-9.5,5-13.3,8.7c-3.8,3.7-6.8,8-9,12.9c-2.2,4.9-3.3,10.2-3.3,15.8
			c0,5.6,1.1,10.9,3.3,15.8c2.2,4.9,5.2,9.2,9,12.9c3.8,3.7,8.3,6.6,13.3,8.7c5,2.1,10.5,3.2,16.2,3.2c5.7,0,11.2-1.1,16.2-3.2
			c5-2.1,9.5-5,13.3-8.7c3.8-3.7,6.8-8,9-12.9c2.2-4.9,3.3-10.2,3.3-15.8c0-5.6-1.1-10.9-3.3-15.8c-2.2-4.9-5.2-9.2-9-12.9
			C1043.2,708.9,1038.7,706,1033.7,703.9z M1044.8,752.6c-1.5,3.6-3.7,6.7-6.3,9.4c-2.7,2.7-5.8,4.8-9.4,6.3c-7.2,3-16.1,3-23.3,0
			c-3.6-1.5-6.8-3.6-9.4-6.3c-2.7-2.7-4.8-5.8-6.3-9.4c-1.5-3.5-2.3-7.4-2.3-11.4c0-4,0.8-7.8,2.3-11.4c1.5-3.6,3.6-6.7,6.3-9.4
			c2.6-2.7,5.8-4.8,9.4-6.3c3.6-1.5,7.5-2.3,11.7-2.3c4.1,0,8.1,0.8,11.7,2.3c3.6,1.5,6.8,3.6,9.4,6.3c2.7,2.7,4.8,5.8,6.3,9.4
			c1.5,3.6,2.3,7.4,2.3,11.4C1047.1,745.2,1046.3,749,1044.8,752.6z"/>
		<path d="M1206.6,780c1.1,1.1,2.6,1.7,4.1,1.7c1.6,0,3-0.6,4.1-1.7c1.2-1.1,1.8-2.6,1.8-4.1v-69.3c0-0.5-0.1-1.1-0.2-1.8
			c-0.3-1.1-0.9-2-1.9-2.7c-1.2-0.9-2.5-1.3-3.8-1.3l-0.7,0c-1.4,0.2-2.7,0.7-3.7,1.7l-9.2,9.3c-0.9,1.1-1.4,2.5-1.4,3.9
			c0,1.6,0.6,3,1.8,4.1c1.1,1,2.4,1.6,4.3,1.6c0,0,0,0,0.1,0c1.1-0.1,2.1-0.4,2.9-0.9v55.3C1204.8,777.5,1205.5,778.9,1206.6,780z"
			/>
		<path d="M1177.6,712.6c-3.8-3.7-8.3-6.6-13.3-8.7c-10.1-4.2-22.4-4.2-32.5,0c-5,2.1-9.5,5-13.3,8.7c-3.8,3.7-6.8,8-9,12.9
			c-2.2,4.9-3.3,10.2-3.3,15.8c0,5.6,1.1,10.9,3.3,15.8c2.2,4.9,5.2,9.2,9,12.9c3.8,3.7,8.3,6.6,13.3,8.7c5,2.1,10.5,3.2,16.2,3.2
			c5.7,0,11.2-1.1,16.2-3.2c5-2.1,9.5-5,13.3-8.7c3.8-3.7,6.8-8,9-12.9c2.2-4.9,3.3-10.2,3.3-15.8c0-5.6-1.1-10.9-3.3-15.8
			C1184.5,720.6,1181.4,716.2,1177.6,712.6z M1175.5,752.6c-1.5,3.6-3.7,6.7-6.3,9.4c-2.7,2.7-5.8,4.8-9.4,6.3c-7.2,3-16.1,3-23.3,0
			c-3.6-1.5-6.8-3.6-9.4-6.3c-2.7-2.7-4.8-5.8-6.3-9.4c-1.5-3.5-2.3-7.4-2.3-11.4c0-4,0.8-7.8,2.3-11.4c1.5-3.6,3.6-6.7,6.3-9.4
			c2.6-2.7,5.8-4.8,9.4-6.3c3.6-1.5,7.5-2.3,11.7-2.3s8.1,0.8,11.7,2.3c3.6,1.5,6.8,3.6,9.4,6.3c2.7,2.7,4.8,5.8,6.3,9.4
			c1.5,3.6,2.3,7.4,2.3,11.4C1177.8,745.2,1177,749,1175.5,752.6z"/>
		<path d="M1337.3,780c1.1,1.1,2.6,1.7,4.1,1.7c1.6,0,3-0.6,4.1-1.7c1.2-1.1,1.8-2.6,1.8-4.1v-69.3c0-0.5-0.1-1.1-0.2-1.8
			c-0.3-1.1-0.9-2-1.9-2.7c-1.2-0.9-2.5-1.3-3.8-1.3l-0.7,0c-1.4,0.2-2.7,0.7-3.7,1.7l-9.2,9.3c-0.9,1.1-1.4,2.5-1.4,3.9
			c0,1.6,0.6,3,1.8,4.1c1.1,1,2.4,1.6,4.3,1.6c0,0,0,0,0.1,0c1.1-0.1,2.1-0.4,2.9-0.9v55.3C1335.5,777.5,1336.1,778.9,1337.3,780z"
			/>
		<path d="M1308.3,712.6c-3.8-3.7-8.3-6.6-13.3-8.7c-10.1-4.2-22.4-4.2-32.5,0c-5,2.1-9.5,5-13.3,8.7c-3.8,3.7-6.8,8-9,12.9
			c-2.2,4.9-3.3,10.2-3.3,15.8c0,5.6,1.1,10.9,3.3,15.8c2.2,4.9,5.2,9.2,9,12.9c3.8,3.7,8.3,6.6,13.3,8.7c5,2.1,10.5,3.2,16.2,3.2
			c5.7,0,11.2-1.1,16.2-3.2c5-2.1,9.5-5,13.3-8.7c3.8-3.7,6.8-8,9-12.9c2.2-4.9,3.3-10.2,3.3-15.8c0-5.6-1.1-10.9-3.3-15.8
			C1315.1,720.6,1312.1,716.2,1308.3,712.6z M1306.2,752.6c-1.5,3.6-3.7,6.7-6.3,9.4c-2.7,2.7-5.8,4.8-9.4,6.3c-7.2,3-16.1,3-23.3,0
			c-3.6-1.5-6.8-3.6-9.4-6.3c-2.7-2.7-4.8-5.8-6.3-9.4c-1.5-3.5-2.3-7.4-2.3-11.4c0-4,0.8-7.8,2.3-11.4c1.5-3.6,3.6-6.7,6.3-9.4
			c2.6-2.7,5.8-4.8,9.4-6.3c3.6-1.5,7.5-2.3,11.7-2.3s8.1,0.8,11.7,2.3c3.6,1.5,6.8,3.6,9.4,6.3c2.7,2.7,4.8,5.8,6.3,9.4
			c1.5,3.6,2.3,7.4,2.3,11.4C1308.5,745.2,1307.7,749,1306.2,752.6z"/>
		<path d="M1086,598.2c0-0.5-0.1-1.1-0.2-1.8c-0.3-1.1-0.9-2-1.9-2.7c-1.2-0.9-2.5-1.3-3.8-1.3l-0.7,0c-1.4,0.2-2.7,0.7-3.7,1.7
			l-9.2,9.3c-0.9,1.1-1.4,2.5-1.4,3.9c0,1.6,0.6,3,1.8,4.1c1.1,1,2.4,1.6,4.3,1.6c0,0,0,0,0.1,0c1.1-0.1,2.1-0.4,2.9-0.9v55.3
			c0,1.6,0.6,3,1.8,4.1c1.1,1.1,2.6,1.7,4.1,1.7c1.6,0,3-0.6,4.1-1.7c1.2-1.1,1.8-2.6,1.8-4.1V598.2z"/>
		<path d="M1216.7,598.2c0-0.5-0.1-1.1-0.2-1.8c-0.3-1.1-0.9-2-1.9-2.7c-1.2-0.9-2.5-1.3-3.8-1.3l-0.7,0c-1.4,0.2-2.7,0.7-3.7,1.7
			l-9.2,9.3c-0.9,1.1-1.4,2.5-1.4,3.9c0,1.6,0.6,3,1.8,4.1c1.1,1,2.4,1.6,4.3,1.6c0,0,0,0,0.1,0c1.1-0.1,2.1-0.4,2.9-0.9v55.3
			c0,1.6,0.6,3,1.8,4.1c1.1,1.1,2.6,1.7,4.1,1.7c1.6,0,3-0.6,4.1-1.7c1.2-1.1,1.8-2.6,1.8-4.1V598.2z"/>
		<path d="M1186.6,617.1c-2.2-4.9-5.2-9.2-9-12.9c-3.8-3.7-8.3-6.6-13.3-8.7c-10.1-4.2-22.4-4.2-32.5,0c-5,2.1-9.5,5-13.3,8.7
			c-3.8,3.7-6.8,8-9,12.9c-2.2,4.9-3.3,10.2-3.3,15.8c0,5.6,1.1,10.9,3.3,15.8c2.2,4.9,5.2,9.2,9,12.9c3.8,3.7,8.3,6.6,13.3,8.7
			c5,2.1,10.5,3.2,16.2,3.2c5.7,0,11.2-1.1,16.2-3.2c5-2.1,9.5-5,13.3-8.7c3.8-3.7,6.8-8,9-12.9c2.2-4.9,3.3-10.2,3.3-15.8
			C1189.9,627.3,1188.8,622,1186.6,617.1z M1175.5,644.2c-1.5,3.6-3.7,6.7-6.3,9.4c-2.7,2.7-5.8,4.8-9.4,6.3c-7.2,3-16.1,3-23.3,0
			c-3.6-1.5-6.8-3.6-9.4-6.3c-2.7-2.7-4.8-5.8-6.3-9.4c-1.5-3.5-2.3-7.4-2.3-11.4c0-4,0.8-7.8,2.3-11.4c1.5-3.6,3.6-6.7,6.3-9.4
			c2.6-2.7,5.8-4.8,9.4-6.3c3.6-1.5,7.5-2.3,11.7-2.3s8.1,0.8,11.7,2.3c3.6,1.5,6.8,3.6,9.4,6.3c2.7,2.7,4.8,5.8,6.3,9.4
			c1.5,3.6,2.3,7.4,2.3,11.4C1177.8,636.8,1177,640.6,1175.5,644.2z"/>
		<path d="M1347.4,598.2c0-0.5-0.1-1.1-0.2-1.8c-0.3-1.1-0.9-2-1.9-2.7c-1.2-0.9-2.5-1.3-3.8-1.3l-0.7,0c-1.4,0.2-2.7,0.7-3.7,1.7
			l-9.2,9.3c-0.9,1.1-1.4,2.5-1.4,3.9c0,1.6,0.6,3,1.8,4.1c1.1,1,2.4,1.6,4.3,1.6c0,0,0,0,0.1,0c1.1-0.1,2.1-0.4,2.9-0.9v55.3
			c0,1.6,0.6,3,1.8,4.1c1.1,1.1,2.6,1.7,4.1,1.7c1.6,0,3-0.6,4.1-1.7c1.2-1.1,1.8-2.6,1.8-4.1V598.2z"/>
		<path d="M1317.3,617.1c-2.2-4.9-5.2-9.2-9-12.9c-3.8-3.7-8.3-6.6-13.3-8.7c-10.1-4.2-22.4-4.2-32.5,0c-5,2.1-9.5,5-13.3,8.7
			c-3.8,3.7-6.8,8-9,12.9c-2.2,4.9-3.3,10.2-3.3,15.8c0,5.6,1.1,10.9,3.3,15.8c2.2,4.9,5.2,9.2,9,12.9c3.8,3.7,8.3,6.6,13.3,8.7
			c5,2.1,10.5,3.2,16.2,3.2c5.7,0,11.2-1.1,16.2-3.2c5-2.1,9.5-5,13.3-8.7c3.8-3.7,6.8-8,9-12.9c2.2-4.9,3.3-10.2,3.3-15.8
			C1320.6,627.3,1319.5,622,1317.3,617.1z M1306.2,644.2c-1.5,3.6-3.7,6.7-6.3,9.4c-2.7,2.7-5.8,4.8-9.4,6.3c-7.2,3-16.1,3-23.3,0
			c-3.6-1.5-6.8-3.6-9.4-6.3c-2.7-2.7-4.8-5.8-6.3-9.4c-1.5-3.5-2.3-7.4-2.3-11.4c0-4,0.8-7.8,2.3-11.4c1.5-3.6,3.6-6.7,6.3-9.4
			c2.6-2.7,5.8-4.8,9.4-6.3c3.6-1.5,7.5-2.3,11.7-2.3s8.1,0.8,11.7,2.3c3.6,1.5,6.8,3.6,9.4,6.3c2.7,2.7,4.8,5.8,6.3,9.4
			c1.5,3.6,2.3,7.4,2.3,11.4C1308.5,636.8,1307.7,640.6,1306.2,644.2z"/>
		<path d="M1216.7,486.3c0-0.5-0.1-1.1-0.2-1.8c-0.3-1.1-0.9-2-1.9-2.7c-1.2-0.9-2.5-1.3-3.8-1.3l-0.7,0c-1.4,0.2-2.7,0.7-3.7,1.7
			l-9.2,9.3c-0.9,1.1-1.4,2.5-1.4,3.9c0,1.6,0.6,3,1.8,4.1c1.1,1,2.4,1.6,4.3,1.6c0,0,0,0,0.1,0c1.1-0.1,2.1-0.4,2.9-0.9v55.3
			c0,1.6,0.6,3,1.8,4.1c1.1,1.1,2.6,1.7,4.1,1.7c1.6,0,3-0.6,4.1-1.7c1.2-1.1,1.8-2.6,1.8-4.1V486.3z"/>
		<path d="M1347.4,486.3c0-0.5-0.1-1.1-0.2-1.8c-0.3-1.1-0.9-2-1.9-2.7c-1.2-0.9-2.5-1.3-3.8-1.3l-0.7,0c-1.4,0.2-2.7,0.7-3.7,1.7
			l-9.2,9.3c-0.9,1.1-1.4,2.5-1.4,3.9c0,1.6,0.6,3,1.8,4.1c1.1,1,2.4,1.6,4.3,1.6c0,0,0,0,0.1,0c1.1-0.1,2.1-0.4,2.9-0.9v55.3
			c0,1.6,0.6,3,1.8,4.1c1.1,1.1,2.6,1.7,4.1,1.7c1.6,0,3-0.6,4.1-1.7c1.2-1.1,1.8-2.6,1.8-4.1V486.3z"/>
		<path d="M1317.3,505.2c-2.2-4.9-5.2-9.2-9-12.9c-3.8-3.7-8.3-6.6-13.3-8.7c-10.1-4.2-22.4-4.2-32.5,0c-5,2.1-9.5,5-13.3,8.7
			c-3.8,3.7-6.8,8-9,12.9c-2.2,4.9-3.3,10.2-3.3,15.8c0,5.6,1.1,10.9,3.3,15.8c2.2,4.9,5.2,9.2,9,12.9c3.8,3.7,8.3,6.6,13.3,8.7
			c5,2.1,10.5,3.2,16.2,3.2c5.7,0,11.2-1.1,16.2-3.2c5-2.1,9.5-5,13.3-8.7c3.8-3.7,6.8-8,9-12.9c2.2-4.9,3.3-10.2,3.3-15.8
			C1320.6,515.4,1319.5,510.1,1317.3,505.2z M1306.2,532.3c-1.5,3.6-3.7,6.7-6.3,9.4c-2.7,2.7-5.8,4.8-9.4,6.3c-7.2,3-16.1,3-23.3,0
			c-3.6-1.5-6.8-3.6-9.4-6.3c-2.7-2.6-4.8-5.8-6.3-9.4c-1.5-3.5-2.3-7.4-2.3-11.4c0-4,0.8-7.8,2.3-11.4c1.5-3.6,3.6-6.7,6.3-9.4
			c2.6-2.7,5.8-4.8,9.4-6.3c3.6-1.5,7.5-2.3,11.7-2.3s8.1,0.8,11.7,2.3c3.6,1.5,6.8,3.6,9.4,6.3c2.7,2.7,4.8,5.8,6.3,9.4
			c1.5,3.6,2.3,7.4,2.3,11.4C1308.5,524.9,1307.7,528.8,1306.2,532.3z"/>
		<path d="M858.2,637.5h42.6c2.3,16.5,16.5,29.3,33.6,29.3c18.7,0,34-15.2,34-34c0-8.6-3.3-16.5-8.6-22.5l51.9-60.8
			c5.3,3.4,11.5,5.4,18.3,5.4c17.1,0,31.3-12.8,33.6-29.3h9c2.3,16.5,16.5,29.3,33.6,29.3c18.7,0,34-15.2,34-34
			c0-10.5-4.8-19.9-12.3-26.1l35.2-56.8c4.2,1.9,8.8,2.9,13.7,2.9c17.1,0,31.3-12.8,33.6-29.3h103.2c2.3,16.5,16.5,29.3,33.6,29.3
			c18.7,0,34-15.2,34-34s-15.2-34-34-34c-17.1,0-31.3,12.8-33.6,29.3h-103.2c-2.3-16.5-16.5-29.3-33.6-29.3c-18.7,0-34,15.2-34,34
			c0,10.5,4.8,19.9,12.3,26.1l-35.2,56.8c-4.2-1.9-8.8-2.9-13.7-2.9c-17.1,0-31.3,12.8-33.6,29.3h-9c-2.3-16.5-16.5-29.3-33.6-29.3
			c-18.7,0-34,15.2-34,34c0,8.6,3.3,16.5,8.6,22.5l-51.9,60.8c-5.3-3.4-11.5-5.4-18.3-5.4c-17.1,0-31.3,12.8-33.6,29.3h-42.6
			c-2.3-16.5-16.5-29.3-33.6-29.3c-18.7,0-34,15.2-34,34c0,18.7,15.2,34,34,34C841.7,666.8,855.9,654,858.2,637.5z M1347.4,402.3
			h-24.1c2.2-11.3,12.2-19.9,24.1-19.9c13.5,0,24.6,11,24.6,24.6c0,13.6-11,24.6-24.6,24.6c-11.9,0-21.9-8.6-24.1-19.9h24.1
			c2.6,0,4.7-2.1,4.7-4.7S1350,402.3,1347.4,402.3z M1176.9,431.6c-3.1,0-6-0.6-8.7-1.7l11.3-18.2h21.5
			C1198.8,423,1188.9,431.6,1176.9,431.6z M1152.4,407c0-13.6,11-24.6,24.6-24.6c11.9,0,21.9,8.6,24.1,19.9h-24.1
			c-1.6,0-3.1,0.8-4,2.2l-12.7,20.4C1155.4,420.4,1152.4,414.1,1152.4,407z M1106.3,496.4c3.1,0,6,0.6,8.7,1.7l-11.3,18.2h-21.5
			C1084.4,504.9,1094.3,496.4,1106.3,496.4z M1106.3,525.7c1.6,0,3.1-0.8,4-2.2l12.7-20.4c4.8,4.5,7.9,10.8,7.9,17.9
			c0,13.6-11,24.6-24.6,24.6c-11.9,0-21.9-8.6-24.1-19.9H1106.3z M1030,545.5c-4.4,0-8.4-1.2-12-3.3l14.2-16.6h21.9
			C1051.9,537,1041.9,545.5,1030,545.5z M1030,496.4c11.9,0,21.9,8.6,24.1,19.9H1030c-1.4,0-2.7,0.6-3.6,1.6l-15.6,18.2
			c-3.3-4.2-5.4-9.4-5.4-15.2C1005.4,507.4,1016.4,496.4,1030,496.4z M953.6,617.6c3.3,4.2,5.4,9.4,5.4,15.2
			c0,13.5-11,24.6-24.6,24.6c-11.9,0-21.9-8.6-24.1-19.9h24.1c1.4,0,2.7-0.6,3.6-1.6L953.6,617.6z M934.4,608.3
			c4.4,0,8.4,1.2,12,3.3l-14.2,16.6h-21.9C912.5,616.8,922.5,608.3,934.4,608.3z M800,632.8c0-13.6,11-24.6,24.6-24.6
			c11.9,0,21.9,8.6,24.1,19.9h-24.1c-2.6,0-4.7,2.1-4.7,4.7s2.1,4.7,4.7,4.7h24.1c-2.2,11.3-12.2,19.9-24.1,19.9
			C811.1,657.4,800,646.4,800,632.8z"/>
	</g>
	<g>
		<path fill="#6DCACB" d="M1251.8,1359.1c1.6,1.6,3.5,2.9,5.7,3.8c4.3,1.8,9.7,1.8,14.1,0c2.2-0.9,4.1-2.2,5.7-3.8
			c1.6-1.6,2.9-3.5,3.8-5.7c0.9-2.1,1.4-4.4,1.4-6.8s-0.5-4.7-1.4-6.8c-0.9-2.2-2.2-4.1-3.8-5.7c-1.6-1.6-3.5-2.9-5.7-3.8
			c-2.2-0.9-4.5-1.4-7-1.4c-2.5,0-4.9,0.5-7,1.4c-2.2,0.9-4.1,2.2-5.7,3.8c-1.6,1.6-2.9,3.5-3.8,5.7c-0.9,2.1-1.4,4.4-1.4,6.8
			s0.5,4.7,1.4,6.8C1249,1355.6,1250.2,1357.5,1251.8,1359.1z"/>
		<path fill="#6DCACB" d="M1251.8,1282.8c1.6,1.6,3.5,2.9,5.7,3.8c4.3,1.8,9.7,1.8,14.1,0c2.2-0.9,4.1-2.2,5.7-3.8
			c1.6-1.6,2.9-3.5,3.8-5.7c0.9-2.1,1.4-4.4,1.4-6.8c0-2.4-0.5-4.7-1.4-6.8c-0.9-2.2-2.2-4.1-3.8-5.7c-1.6-1.6-3.5-2.9-5.7-3.8
			c-2.2-0.9-4.5-1.4-7-1.4c-2.5,0-4.9,0.5-7,1.4c-2.2,0.9-4.1,2.2-5.7,3.8c-1.6,1.6-2.9,3.5-3.8,5.7c-0.9,2.1-1.4,4.4-1.4,6.8
			s0.5,4.7,1.4,6.8C1249,1279.3,1250.2,1281.2,1251.8,1282.8z"/>
		<path fill="#6DCACB" d="M1251.8,1435.4c1.6,1.6,3.5,2.9,5.7,3.8c4.3,1.8,9.7,1.8,14.1,0c2.2-0.9,4.1-2.2,5.7-3.8
			c1.6-1.6,2.9-3.5,3.8-5.7c0.9-2.1,1.4-4.4,1.4-6.8c0-2.4-0.5-4.7-1.4-6.8c-0.9-2.2-2.2-4.1-3.8-5.7c-1.6-1.6-3.5-2.9-5.7-3.8
			c-2.2-0.9-4.5-1.4-7-1.4c-2.5,0-4.9,0.5-7,1.4c-2.2,0.9-4.1,2.2-5.7,3.8c-1.6,1.6-2.9,3.5-3.8,5.7c-0.9,2.1-1.4,4.4-1.4,6.8
			s0.5,4.7,1.4,6.8C1249,1431.9,1250.2,1433.8,1251.8,1435.4z"/>
		<path fill="#6DCACB" d="M1170.3,1282.8c1.6,1.6,3.5,2.9,5.7,3.8c4.3,1.8,9.7,1.8,14.1,0c2.2-0.9,4.1-2.2,5.7-3.8
			c1.6-1.6,2.9-3.5,3.8-5.7c0.9-2.1,1.4-4.4,1.4-6.8c0-2.4-0.5-4.7-1.4-6.8c-0.9-2.2-2.2-4.1-3.8-5.7c-1.6-1.6-3.5-2.9-5.7-3.8
			c-2.2-0.9-4.5-1.4-7-1.4s-4.9,0.5-7,1.4c-2.2,0.9-4.1,2.2-5.7,3.8c-1.6,1.6-2.9,3.5-3.8,5.7c-0.9,2.1-1.4,4.4-1.4,6.8
			s0.5,4.7,1.4,6.8C1167.4,1279.3,1168.7,1281.2,1170.3,1282.8z"/>
		<path fill="#6DCACB" d="M1170.3,1359.1c1.6,1.6,3.5,2.9,5.7,3.8c4.3,1.8,9.7,1.8,14.1,0c2.2-0.9,4.1-2.2,5.7-3.8
			c1.6-1.6,2.9-3.5,3.8-5.7c0.9-2.1,1.4-4.4,1.4-6.8s-0.5-4.7-1.4-6.8c-0.9-2.2-2.2-4.1-3.8-5.7c-1.6-1.6-3.5-2.9-5.7-3.8
			c-2.2-0.9-4.5-1.4-7-1.4s-4.9,0.5-7,1.4c-2.2,0.9-4.1,2.2-5.7,3.8c-1.6,1.6-2.9,3.5-3.8,5.7c-0.9,2.1-1.4,4.4-1.4,6.8
			s0.5,4.7,1.4,6.8C1167.4,1355.6,1168.7,1357.5,1170.3,1359.1z"/>
		<path fill="#6DCACB" d="M1088.7,1359.1c1.6,1.6,3.5,2.9,5.7,3.8c4.3,1.8,9.7,1.8,14.1,0c2.2-0.9,4.1-2.2,5.7-3.8
			c1.6-1.6,2.9-3.5,3.8-5.7c0.9-2.1,1.4-4.4,1.4-6.8s-0.5-4.7-1.4-6.8c-0.9-2.2-2.2-4.1-3.8-5.7c-1.6-1.6-3.5-2.9-5.7-3.8
			c-2.2-0.9-4.5-1.4-7-1.4s-4.9,0.5-7,1.4c-2.2,0.9-4.1,2.2-5.7,3.8c-1.6,1.6-2.9,3.5-3.8,5.7c-0.9,2.1-1.4,4.4-1.4,6.8
			s0.5,4.7,1.4,6.8C1085.8,1355.6,1087.1,1357.5,1088.7,1359.1z"/>
		<path fill="#6DCACB" d="M1088.7,1435.4c1.6,1.6,3.5,2.9,5.7,3.8c4.3,1.8,9.7,1.8,14.1,0c2.2-0.9,4.1-2.2,5.7-3.8
			c1.6-1.6,2.9-3.5,3.8-5.7c0.9-2.1,1.4-4.4,1.4-6.8c0-2.4-0.5-4.7-1.4-6.8c-0.9-2.2-2.2-4.1-3.8-5.7c-1.6-1.6-3.5-2.9-5.7-3.8
			c-2.2-0.9-4.5-1.4-7-1.4s-4.9,0.5-7,1.4c-2.2,0.9-4.1,2.2-5.7,3.8c-1.6,1.6-2.9,3.5-3.8,5.7c-0.9,2.1-1.4,4.4-1.4,6.8
			s0.5,4.7,1.4,6.8C1085.8,1431.9,1087.1,1433.8,1088.7,1435.4z"/>
		<path fill="#6DCACB" d="M1088.7,1282.8c1.6,1.6,3.5,2.9,5.7,3.8c4.3,1.8,9.7,1.8,14.1,0c2.2-0.9,4.1-2.2,5.7-3.8
			c1.6-1.6,2.9-3.5,3.8-5.7c0.9-2.1,1.4-4.4,1.4-6.8c0-2.4-0.5-4.7-1.4-6.8c-0.9-2.2-2.2-4.1-3.8-5.7c-1.6-1.6-3.5-2.9-5.7-3.8
			c-2.2-0.9-4.5-1.4-7-1.4s-4.9,0.5-7,1.4c-2.2,0.9-4.1,2.2-5.7,3.8c-1.6,1.6-2.9,3.5-3.8,5.7c-0.9,2.1-1.4,4.4-1.4,6.8
			s0.5,4.7,1.4,6.8C1085.8,1279.3,1087.1,1281.2,1088.7,1282.8z"/>
		<path fill="#F47721" d="M920,1555h-48.6v59.6h572.8V1555h-57.9H920z M1218.8,1598.9c0,2.6-2.1,4.7-4.7,4.7h-112.7
			c-2.6,0-4.7-2.1-4.7-4.7v-28.2c0-2.6,2.1-4.7,4.7-4.7h112.7c2.6,0,4.7,2.1,4.7,4.7V1598.9z"/>
		<path fill="#6DCACB" d="M1007.1,1435.4c1.6,1.6,3.5,2.9,5.7,3.8c4.3,1.8,9.7,1.8,14.1,0c2.2-0.9,4.1-2.2,5.7-3.8
			c1.6-1.6,2.9-3.5,3.8-5.7c0.9-2.1,1.4-4.4,1.4-6.8c0-2.4-0.5-4.7-1.4-6.8c-0.9-2.2-2.2-4.1-3.8-5.7c-1.6-1.6-3.5-2.9-5.7-3.8
			c-2.2-0.9-4.5-1.4-7-1.4c-2.5,0-4.9,0.5-7,1.4c-2.2,0.9-4.1,2.2-5.7,3.8c-1.6,1.6-2.9,3.5-3.8,5.7c-0.9,2.1-1.4,4.4-1.4,6.8
			s0.5,4.7,1.4,6.8C1004.3,1431.9,1005.5,1433.8,1007.1,1435.4z"/>
		<path fill="#6DCACB" d="M964.2,1512.7h377.9V1199H964.2V1512.7z M1294.1,1252.5l5.5-5.6c0.6-0.6,1.4-0.9,2.2-1l0.4,0
			c0.8,0,1.6,0.3,2.3,0.8c0.6,0.4,1,1,1.1,1.6c0.1,0.4,0.1,0.8,0.1,1.1v41.8c0,0.9-0.4,1.8-1.1,2.5c-0.7,0.7-1.5,1-2.5,1
			c-0.9,0-1.8-0.4-2.5-1c-0.7-0.7-1.1-1.5-1.1-2.5v-33.4c-0.5,0.3-1.1,0.5-1.8,0.6c0,0,0,0,0,0c-1.1,0-1.9-0.3-2.6-1
			c-0.7-0.7-1.1-1.6-1.1-2.5C1293.3,1254,1293.6,1253.2,1294.1,1252.5z M1294.1,1328.8l5.5-5.6c0.6-0.6,1.4-0.9,2.2-1l0.4,0
			c0.8,0,1.6,0.3,2.3,0.8c0.6,0.4,1,1,1.1,1.6c0.1,0.4,0.1,0.8,0.1,1.1v41.8c0,0.9-0.4,1.8-1.1,2.5c-0.7,0.7-1.5,1-2.5,1
			c-0.9,0-1.8-0.4-2.5-1c-0.7-0.7-1.1-1.5-1.1-2.5v-33.4c-0.5,0.3-1.1,0.5-1.8,0.6c0,0,0,0,0,0c-1.1,0-1.9-0.3-2.6-1
			c-0.7-0.7-1.1-1.6-1.1-2.5C1293.3,1330.3,1293.6,1329.5,1294.1,1328.8z M1294.1,1405.2l5.5-5.6c0.6-0.6,1.4-0.9,2.2-1l0.4,0
			c0.8,0,1.6,0.3,2.3,0.8c0.6,0.4,1,1,1.1,1.6c0.1,0.4,0.1,0.8,0.1,1.1v41.8c0,0.9-0.4,1.8-1.1,2.5c-0.7,0.7-1.5,1-2.5,1
			c-0.9,0-1.8-0.4-2.5-1c-0.7-0.7-1.1-1.5-1.1-2.5v-33.4c-0.5,0.3-1.1,0.5-1.8,0.6c0,0,0,0,0,0c-1.1,0-1.9-0.3-2.6-1
			c-0.7-0.7-1.1-1.6-1.1-2.5C1293.3,1406.6,1293.6,1405.8,1294.1,1405.2z M1241.3,1260.8c1.3-2.9,3.1-5.5,5.4-7.8c2.3-2.2,5-4,8-5.2
			c6.1-2.5,13.5-2.5,19.6,0c3,1.3,5.7,3,8,5.2c2.3,2.2,4.1,4.8,5.4,7.8c1.3,3,2,6.2,2,9.5c0,3.4-0.7,6.6-2,9.5
			c-1.3,2.9-3.1,5.5-5.4,7.8c-2.3,2.2-5,4-8,5.2c-3,1.3-6.3,1.9-9.8,1.9c-3.5,0-6.8-0.6-9.8-1.9c-3-1.3-5.7-3-8-5.2
			c-2.3-2.2-4.1-4.8-5.4-7.8c-1.3-3-2-6.2-2-9.5C1239.3,1266.9,1240,1263.7,1241.3,1260.8z M1241.3,1337.1c1.3-2.9,3.1-5.5,5.4-7.8
			c2.3-2.2,5-4,8-5.2c6.1-2.5,13.5-2.5,19.6,0c3,1.3,5.7,3,8,5.2c2.3,2.2,4.1,4.8,5.4,7.8c1.3,3,2,6.2,2,9.5c0,3.4-0.7,6.6-2,9.5
			c-1.3,2.9-3.1,5.5-5.4,7.8c-2.3,2.2-5,4-8,5.2c-3,1.3-6.3,1.9-9.8,1.9c-3.5,0-6.8-0.6-9.8-1.9c-3-1.3-5.7-3-8-5.2
			c-2.3-2.2-4.1-4.8-5.4-7.8c-1.3-3-2-6.2-2-9.5C1239.3,1343.2,1240,1340,1241.3,1337.1z M1241.3,1413.4c1.3-2.9,3.1-5.5,5.4-7.8
			c2.3-2.2,5-4,8-5.2c6.1-2.5,13.5-2.5,19.6,0c3,1.3,5.7,3,8,5.2c2.3,2.2,4.1,4.8,5.4,7.8c1.3,3,2,6.2,2,9.5c0,3.4-0.7,6.6-2,9.5
			c-1.3,2.9-3.1,5.5-5.4,7.8c-2.3,2.2-5,4-8,5.2c-3,1.3-6.3,1.9-9.8,1.9c-3.5,0-6.8-0.6-9.8-1.9c-3-1.3-5.7-3-8-5.2
			c-2.3-2.2-4.1-4.8-5.4-7.8c-1.3-3-2-6.2-2-9.5C1239.3,1419.5,1240,1416.3,1241.3,1413.4z M1212.6,1252.5l5.5-5.6
			c0.6-0.6,1.4-0.9,2.2-1l0.4,0c0.8,0,1.6,0.3,2.3,0.8c0.6,0.4,1,1,1.1,1.6c0.1,0.4,0.1,0.8,0.1,1.1v41.8c0,0.9-0.4,1.8-1.1,2.5
			c-0.7,0.7-1.5,1-2.5,1c-0.9,0-1.8-0.4-2.5-1c-0.7-0.7-1.1-1.5-1.1-2.5v-33.4c-0.5,0.3-1.1,0.5-1.8,0.6c0,0,0,0,0,0
			c-1.1,0-1.9-0.3-2.6-1c-0.7-0.7-1.1-1.6-1.1-2.5C1211.7,1254,1212,1253.2,1212.6,1252.5z M1212.6,1328.8l5.5-5.6
			c0.6-0.6,1.4-0.9,2.2-1l0.4,0c0.8,0,1.6,0.3,2.3,0.8c0.6,0.4,1,1,1.1,1.6c0.1,0.4,0.1,0.8,0.1,1.1v41.8c0,0.9-0.4,1.8-1.1,2.5
			c-0.7,0.7-1.5,1-2.5,1c-0.9,0-1.8-0.4-2.5-1c-0.7-0.7-1.1-1.5-1.1-2.5v-33.4c-0.5,0.3-1.1,0.5-1.8,0.6c0,0,0,0,0,0
			c-1.1,0-1.9-0.3-2.6-1c-0.7-0.7-1.1-1.6-1.1-2.5C1211.7,1330.3,1212,1329.5,1212.6,1328.8z M1212.6,1405.2l5.5-5.6
			c0.6-0.6,1.4-0.9,2.2-1l0.4,0c0.8,0,1.6,0.3,2.3,0.8c0.6,0.4,1,1,1.1,1.6c0.1,0.4,0.1,0.8,0.1,1.1v41.8c0,0.9-0.4,1.8-1.1,2.5
			c-0.7,0.7-1.5,1-2.5,1c-0.9,0-1.8-0.4-2.5-1c-0.7-0.7-1.1-1.5-1.1-2.5v-33.4c-0.5,0.3-1.1,0.5-1.8,0.6c0,0,0,0,0,0
			c-1.1,0-1.9-0.3-2.6-1c-0.7-0.7-1.1-1.6-1.1-2.5C1211.7,1406.6,1212,1405.8,1212.6,1405.2z M1159.7,1260.8
			c1.3-2.9,3.1-5.5,5.4-7.8c2.3-2.2,5-4,8-5.2c6.1-2.5,13.5-2.5,19.6,0c3,1.3,5.7,3,8,5.2c2.3,2.2,4.1,4.8,5.4,7.8
			c1.3,3,2,6.2,2,9.5c0,3.4-0.7,6.6-2,9.5c-1.3,2.9-3.1,5.5-5.4,7.8s-5,4-8,5.2c-3,1.3-6.3,1.9-9.8,1.9c-3.5,0-6.8-0.6-9.8-1.9
			c-3-1.3-5.7-3-8-5.2c-2.3-2.2-4.1-4.8-5.4-7.8c-1.3-3-2-6.2-2-9.5C1157.8,1266.9,1158.4,1263.7,1159.7,1260.8z M1159.7,1337.1
			c1.3-2.9,3.1-5.5,5.4-7.8c2.3-2.2,5-4,8-5.2c6.1-2.5,13.5-2.5,19.6,0c3,1.3,5.7,3,8,5.2c2.3,2.2,4.1,4.8,5.4,7.8
			c1.3,3,2,6.2,2,9.5c0,3.4-0.7,6.6-2,9.5c-1.3,2.9-3.1,5.5-5.4,7.8s-5,4-8,5.2c-3,1.3-6.3,1.9-9.8,1.9c-3.5,0-6.8-0.6-9.8-1.9
			c-3-1.3-5.7-3-8-5.2c-2.3-2.2-4.1-4.8-5.4-7.8c-1.3-3-2-6.2-2-9.5C1157.8,1343.2,1158.4,1340,1159.7,1337.1z M1159.7,1413.4
			c1.3-2.9,3.1-5.5,5.4-7.8c2.3-2.2,5-4,8-5.2c6.1-2.5,13.5-2.5,19.6,0c3,1.3,5.7,3,8,5.2c2.3,2.2,4.1,4.8,5.4,7.8
			c1.3,3,2,6.2,2,9.5c0,3.4-0.7,6.6-2,9.5c-1.3,2.9-3.1,5.5-5.4,7.8c-2.3,2.2-5,4-8,5.2c-3,1.3-6.3,1.9-9.8,1.9
			c-3.5,0-6.8-0.6-9.8-1.9c-3-1.3-5.7-3-8-5.2c-2.3-2.2-4.1-4.8-5.4-7.8c-1.3-3-2-6.2-2-9.5
			C1157.8,1419.5,1158.4,1416.3,1159.7,1413.4z M1131,1252.5l5.5-5.6c0.6-0.6,1.4-0.9,2.2-1l0.4,0c0.8,0,1.6,0.3,2.3,0.8
			c0.6,0.4,1,1,1.1,1.6c0.1,0.4,0.1,0.8,0.1,1.1v41.8c0,0.9-0.4,1.8-1.1,2.5c-0.7,0.7-1.5,1-2.5,1c-0.9,0-1.8-0.4-2.5-1
			c-0.7-0.7-1.1-1.5-1.1-2.5v-33.4c-0.5,0.3-1.1,0.5-1.8,0.6c0,0,0,0,0,0c-1.1,0-1.9-0.3-2.6-1c-0.7-0.7-1.1-1.6-1.1-2.5
			C1130.1,1254,1130.5,1253.2,1131,1252.5z M1131,1328.8l5.5-5.6c0.6-0.6,1.4-0.9,2.2-1l0.4,0c0.8,0,1.6,0.3,2.3,0.8
			c0.6,0.4,1,1,1.1,1.6c0.1,0.4,0.1,0.8,0.1,1.1v41.8c0,0.9-0.4,1.8-1.1,2.5c-0.7,0.7-1.5,1-2.5,1c-0.9,0-1.8-0.4-2.5-1
			c-0.7-0.7-1.1-1.5-1.1-2.5v-33.4c-0.5,0.3-1.1,0.5-1.8,0.6c0,0,0,0,0,0c-1.1,0-1.9-0.3-2.6-1c-0.7-0.7-1.1-1.6-1.1-2.5
			C1130.1,1330.3,1130.5,1329.5,1131,1328.8z M1131,1405.2l5.5-5.6c0.6-0.6,1.4-0.9,2.2-1l0.4,0c0.8,0,1.6,0.3,2.3,0.8
			c0.6,0.4,1,1,1.1,1.6c0.1,0.4,0.1,0.8,0.1,1.1v41.8c0,0.9-0.4,1.8-1.1,2.5c-0.7,0.7-1.5,1-2.5,1c-0.9,0-1.8-0.4-2.5-1
			c-0.7-0.7-1.1-1.5-1.1-2.5v-33.4c-0.5,0.3-1.1,0.5-1.8,0.6c0,0,0,0,0,0c-1.1,0-1.9-0.3-2.6-1c-0.7-0.7-1.1-1.6-1.1-2.5
			C1130.1,1406.6,1130.5,1405.8,1131,1405.2z M1078.2,1260.8c1.3-2.9,3.1-5.5,5.4-7.8c2.3-2.2,5-4,8-5.2c6.1-2.5,13.5-2.5,19.6,0
			c3,1.3,5.7,3,8,5.2c2.3,2.2,4.1,4.8,5.4,7.8c1.3,3,2,6.2,2,9.5c0,3.4-0.7,6.6-2,9.5c-1.3,2.9-3.1,5.5-5.4,7.8c-2.3,2.2-5,4-8,5.2
			c-3,1.3-6.3,1.9-9.8,1.9c-3.5,0-6.8-0.6-9.8-1.9c-3-1.3-5.7-3-8-5.2c-2.3-2.2-4.1-4.8-5.4-7.8c-1.3-3-2-6.2-2-9.5
			C1076.2,1266.9,1076.9,1263.7,1078.2,1260.8z M1078.2,1337.1c1.3-2.9,3.1-5.5,5.4-7.8c2.3-2.2,5-4,8-5.2c6.1-2.5,13.5-2.5,19.6,0
			c3,1.3,5.7,3,8,5.2c2.3,2.2,4.1,4.8,5.4,7.8c1.3,3,2,6.2,2,9.5c0,3.4-0.7,6.6-2,9.5c-1.3,2.9-3.1,5.5-5.4,7.8c-2.3,2.2-5,4-8,5.2
			c-3,1.3-6.3,1.9-9.8,1.9c-3.5,0-6.8-0.6-9.8-1.9c-3-1.3-5.7-3-8-5.2c-2.3-2.2-4.1-4.8-5.4-7.8c-1.3-3-2-6.2-2-9.5
			C1076.2,1343.2,1076.9,1340,1078.2,1337.1z M1078.2,1413.4c1.3-2.9,3.1-5.5,5.4-7.8c2.3-2.2,5-4,8-5.2c6.1-2.5,13.5-2.5,19.6,0
			c3,1.3,5.7,3,8,5.2c2.3,2.2,4.1,4.8,5.4,7.8c1.3,3,2,6.2,2,9.5c0,3.4-0.7,6.6-2,9.5c-1.3,2.9-3.1,5.5-5.4,7.8c-2.3,2.2-5,4-8,5.2
			c-3,1.3-6.3,1.9-9.8,1.9c-3.5,0-6.8-0.6-9.8-1.9c-3-1.3-5.7-3-8-5.2c-2.3-2.2-4.1-4.8-5.4-7.8c-1.3-3-2-6.2-2-9.5
			C1076.2,1419.5,1076.9,1416.3,1078.2,1413.4z M1049.5,1252.5l5.5-5.6c0.6-0.6,1.4-0.9,2.2-1l0.4,0c0.8,0,1.6,0.3,2.3,0.8
			c0.6,0.4,1,1,1.1,1.6c0.1,0.4,0.1,0.8,0.1,1.1v41.8c0,0.9-0.4,1.8-1.1,2.5c-0.7,0.7-1.5,1-2.5,1c-0.9,0-1.8-0.4-2.5-1
			c-0.7-0.7-1.1-1.5-1.1-2.5v-33.4c-0.5,0.3-1.1,0.5-1.8,0.6c0,0,0,0,0,0c-1.1,0-1.9-0.3-2.6-1c-0.7-0.7-1.1-1.6-1.1-2.5
			C1048.6,1254,1048.9,1253.2,1049.5,1252.5z M1049.5,1328.8l5.5-5.6c0.6-0.6,1.4-0.9,2.2-1l0.4,0c0.8,0,1.6,0.3,2.3,0.8
			c0.6,0.4,1,1,1.1,1.6c0.1,0.4,0.1,0.8,0.1,1.1v41.8c0,0.9-0.4,1.8-1.1,2.5c-0.7,0.7-1.5,1-2.5,1c-0.9,0-1.8-0.4-2.5-1
			c-0.7-0.7-1.1-1.5-1.1-2.5v-33.4c-0.5,0.3-1.1,0.5-1.8,0.6c0,0,0,0,0,0c-1.1,0-1.9-0.3-2.6-1c-0.7-0.7-1.1-1.6-1.1-2.5
			C1048.6,1330.3,1048.9,1329.5,1049.5,1328.8z M1049.5,1405.2l5.5-5.6c0.6-0.6,1.4-0.9,2.2-1l0.4,0c0.8,0,1.6,0.3,2.3,0.8
			c0.6,0.4,1,1,1.1,1.6c0.1,0.4,0.1,0.8,0.1,1.1v41.8c0,0.9-0.4,1.8-1.1,2.5c-0.7,0.7-1.5,1-2.5,1c-0.9,0-1.8-0.4-2.5-1
			c-0.7-0.7-1.1-1.5-1.1-2.5v-33.4c-0.5,0.3-1.1,0.5-1.8,0.6c0,0,0,0,0,0c-1.1,0-1.9-0.3-2.6-1c-0.7-0.7-1.1-1.6-1.1-2.5
			C1048.6,1406.6,1048.9,1405.8,1049.5,1405.2z M996.6,1260.8c1.3-2.9,3.1-5.5,5.4-7.8c2.3-2.2,5-4,8-5.2c6.1-2.5,13.5-2.5,19.6,0
			c3,1.3,5.7,3,8,5.2c2.3,2.2,4.1,4.8,5.4,7.8c1.3,3,2,6.2,2,9.5c0,3.4-0.7,6.6-2,9.5c-1.3,2.9-3.1,5.5-5.4,7.8s-5,4-8,5.2
			c-3,1.3-6.3,1.9-9.8,1.9c-3.5,0-6.8-0.6-9.8-1.9c-3-1.3-5.7-3-8-5.2c-2.3-2.2-4.1-4.8-5.4-7.8c-1.3-3-2-6.2-2-9.5
			C994.6,1266.9,995.3,1263.7,996.6,1260.8z M996.6,1337.1c1.3-2.9,3.1-5.5,5.4-7.8c2.3-2.2,5-4,8-5.2c6.1-2.5,13.5-2.5,19.6,0
			c3,1.3,5.7,3,8,5.2c2.3,2.2,4.1,4.8,5.4,7.8c1.3,3,2,6.2,2,9.5c0,3.4-0.7,6.6-2,9.5c-1.3,2.9-3.1,5.5-5.4,7.8s-5,4-8,5.2
			c-3,1.3-6.3,1.9-9.8,1.9c-3.5,0-6.8-0.6-9.8-1.9c-3-1.3-5.7-3-8-5.2c-2.3-2.2-4.1-4.8-5.4-7.8c-1.3-3-2-6.2-2-9.5
			C994.6,1343.2,995.3,1340,996.6,1337.1z M996.6,1413.4c1.3-2.9,3.1-5.5,5.4-7.8c2.3-2.2,5-4,8-5.2c6.1-2.5,13.5-2.5,19.6,0
			c3,1.3,5.7,3,8,5.2c2.3,2.2,4.1,4.8,5.4,7.8c1.3,3,2,6.2,2,9.5c0,3.4-0.7,6.6-2,9.5c-1.3,2.9-3.1,5.5-5.4,7.8c-2.3,2.2-5,4-8,5.2
			c-3,1.3-6.3,1.9-9.8,1.9c-3.5,0-6.8-0.6-9.8-1.9c-3-1.3-5.7-3-8-5.2c-2.3-2.2-4.1-4.8-5.4-7.8c-1.3-3-2-6.2-2-9.5
			C994.6,1419.5,995.3,1416.3,996.6,1413.4z"/>
		<rect x="1106.1" y="1575.4" fill="#F47721" width="103.3" height="18.8"/>
		<path fill="#F47721" d="M1381.6,1166H924.7v379.6h456.9V1166z M1351.5,1517.4c0,2.6-2.1,4.7-4.7,4.7H959.5c-2.6,0-4.7-2.1-4.7-4.7
			v-323.1c0-2.6,2.1-4.7,4.7-4.7h387.3c2.6,0,4.7,2.1,4.7,4.7V1517.4z"/>
		<path fill="#6DCACB" d="M1007.1,1359.1c1.6,1.6,3.5,2.9,5.7,3.8c4.3,1.8,9.7,1.8,14.1,0c2.2-0.9,4.1-2.2,5.7-3.8
			c1.6-1.6,2.9-3.5,3.8-5.7c0.9-2.1,1.4-4.4,1.4-6.8s-0.5-4.7-1.4-6.8c-0.9-2.2-2.2-4.1-3.8-5.7c-1.6-1.6-3.5-2.9-5.7-3.8
			c-2.2-0.9-4.5-1.4-7-1.4c-2.5,0-4.9,0.5-7,1.4c-2.2,0.9-4.1,2.2-5.7,3.8c-1.6,1.6-2.9,3.5-3.8,5.7c-0.9,2.1-1.4,4.4-1.4,6.8
			s0.5,4.7,1.4,6.8C1004.3,1355.6,1005.5,1357.5,1007.1,1359.1z"/>
		<path fill="#6DCACB" d="M1007.1,1282.8c1.6,1.6,3.5,2.9,5.7,3.8c4.3,1.8,9.7,1.8,14.1,0c2.2-0.9,4.1-2.2,5.7-3.8
			c1.6-1.6,2.9-3.5,3.8-5.7c0.9-2.1,1.4-4.4,1.4-6.8c0-2.4-0.5-4.7-1.4-6.8c-0.9-2.2-2.2-4.1-3.8-5.7c-1.6-1.6-3.5-2.9-5.7-3.8
			c-2.2-0.9-4.5-1.4-7-1.4c-2.5,0-4.9,0.5-7,1.4c-2.2,0.9-4.1,2.2-5.7,3.8c-1.6,1.6-2.9,3.5-3.8,5.7c-0.9,2.1-1.4,4.4-1.4,6.8
			s0.5,4.7,1.4,6.8C1004.3,1279.3,1005.5,1281.2,1007.1,1282.8z"/>
		<path fill="#6DCACB" d="M1170.3,1435.4c1.6,1.6,3.5,2.9,5.7,3.8c4.3,1.8,9.7,1.8,14.1,0c2.2-0.9,4.1-2.2,5.7-3.8
			c1.6-1.6,2.9-3.5,3.8-5.7c0.9-2.1,1.4-4.4,1.4-6.8c0-2.4-0.5-4.7-1.4-6.8c-0.9-2.2-2.2-4.1-3.8-5.7c-1.6-1.6-3.5-2.9-5.7-3.8
			c-2.2-0.9-4.5-1.4-7-1.4s-4.9,0.5-7,1.4c-2.2,0.9-4.1,2.2-5.7,3.8c-1.6,1.6-2.9,3.5-3.8,5.7c-0.9,2.1-1.4,4.4-1.4,6.8
			s0.5,4.7,1.4,6.8C1167.4,1431.9,1168.7,1433.8,1170.3,1435.4z"/>
		<path d="M1052.3,1258.4C1052.3,1258.4,1052.3,1258.4,1052.3,1258.4c0.7,0,1.3-0.2,1.8-0.6v33.4c0,0.9,0.4,1.8,1.1,2.5
			c0.7,0.7,1.6,1,2.5,1c0.9,0,1.8-0.4,2.5-1c0.7-0.7,1.1-1.5,1.1-2.5v-41.8c0-0.3,0-0.7-0.1-1.1c-0.2-0.7-0.5-1.2-1.1-1.6
			c-0.7-0.5-1.5-0.8-2.3-0.8l-0.4,0c-0.9,0.1-1.6,0.5-2.2,1l-5.5,5.6c-0.6,0.7-0.9,1.5-0.9,2.4c0,0.9,0.4,1.8,1.1,2.5
			C1050.3,1258,1051.1,1258.4,1052.3,1258.4z"/>
		<path d="M1002,1287.5c2.3,2.2,5,4,8,5.2c3,1.3,6.3,1.9,9.8,1.9c3.4,0,6.7-0.6,9.8-1.9c3-1.3,5.7-3,8-5.2s4.1-4.8,5.4-7.8
			c1.3-3,2-6.2,2-9.5c0-3.4-0.7-6.6-2-9.5c-1.3-2.9-3.1-5.5-5.4-7.8c-2.3-2.2-5-4-8-5.2c-6.1-2.5-13.5-2.5-19.6,0
			c-3,1.3-5.7,3-8,5.2c-2.3,2.2-4.1,4.8-5.4,7.8c-1.3,3-2,6.2-2,9.5c0,3.4,0.7,6.6,2,9.5C997.9,1282.7,999.8,1285.3,1002,1287.5z
			 M1003.3,1263.4c0.9-2.1,2.2-4,3.8-5.7c1.6-1.6,3.5-2.9,5.7-3.8c2.2-0.9,4.5-1.4,7-1.4c2.5,0,4.9,0.5,7,1.4
			c2.2,0.9,4.1,2.2,5.7,3.8c1.6,1.6,2.9,3.5,3.8,5.7c0.9,2.1,1.4,4.4,1.4,6.8c0,2.4-0.5,4.7-1.4,6.8c-0.9,2.2-2.2,4.1-3.8,5.7
			c-1.6,1.6-3.5,2.9-5.7,3.8c-4.3,1.8-9.7,1.8-14.1,0c-2.2-0.9-4.1-2.2-5.7-3.8c-1.6-1.6-2.9-3.5-3.8-5.7c-0.9-2.1-1.4-4.4-1.4-6.8
			S1002.4,1265.6,1003.3,1263.4z"/>
		<path d="M1133.8,1258.4C1133.8,1258.4,1133.8,1258.4,1133.8,1258.4c0.7,0,1.3-0.2,1.8-0.6v33.4c0,0.9,0.4,1.8,1.1,2.5
			c0.7,0.7,1.6,1,2.5,1c0.9,0,1.8-0.4,2.5-1c0.7-0.7,1.1-1.5,1.1-2.5v-41.8c0-0.3,0-0.7-0.1-1.1c-0.2-0.7-0.5-1.2-1.1-1.6
			c-0.7-0.5-1.5-0.8-2.3-0.8l-0.4,0c-0.9,0.1-1.6,0.5-2.2,1l-5.5,5.6c-0.6,0.7-0.9,1.5-0.9,2.4c0,0.9,0.4,1.8,1.1,2.5
			C1131.9,1258,1132.7,1258.4,1133.8,1258.4z"/>
		<path d="M1083.6,1287.5c2.3,2.2,5,4,8,5.2c3,1.3,6.3,1.9,9.8,1.9c3.4,0,6.7-0.6,9.8-1.9c3-1.3,5.7-3,8-5.2
			c2.3-2.2,4.1-4.8,5.4-7.8c1.3-3,2-6.2,2-9.5c0-3.4-0.7-6.6-2-9.5c-1.3-2.9-3.1-5.5-5.4-7.8c-2.3-2.2-5-4-8-5.2
			c-6.1-2.5-13.5-2.5-19.6,0c-3,1.3-5.7,3-8,5.2c-2.3,2.2-4.1,4.8-5.4,7.8c-1.3,3-2,6.2-2,9.5c0,3.4,0.7,6.6,2,9.5
			C1079.5,1282.7,1081.3,1285.3,1083.6,1287.5z M1084.9,1263.4c0.9-2.1,2.2-4,3.8-5.7c1.6-1.6,3.5-2.9,5.7-3.8
			c2.2-0.9,4.5-1.4,7-1.4s4.9,0.5,7,1.4c2.2,0.9,4.1,2.2,5.7,3.8c1.6,1.6,2.9,3.5,3.8,5.7c0.9,2.1,1.4,4.4,1.4,6.8
			c0,2.4-0.5,4.7-1.4,6.8c-0.9,2.2-2.2,4.1-3.8,5.7c-1.6,1.6-3.5,2.9-5.7,3.8c-4.3,1.8-9.7,1.8-14.1,0c-2.2-0.9-4.1-2.2-5.7-3.8
			c-1.6-1.6-2.9-3.5-3.8-5.7c-0.9-2.1-1.4-4.4-1.4-6.8S1084,1265.6,1084.9,1263.4z"/>
		<path d="M1215.4,1258.4C1215.4,1258.4,1215.4,1258.4,1215.4,1258.4c0.7,0,1.3-0.2,1.8-0.6v33.4c0,0.9,0.4,1.8,1.1,2.5
			c0.7,0.7,1.6,1,2.5,1c0.9,0,1.8-0.4,2.5-1c0.7-0.7,1.1-1.5,1.1-2.5v-41.8c0-0.3,0-0.7-0.1-1.1c-0.2-0.7-0.5-1.2-1.1-1.6
			c-0.7-0.5-1.5-0.8-2.3-0.8l-0.4,0c-0.9,0.1-1.6,0.5-2.2,1l-5.5,5.6c-0.6,0.7-0.9,1.5-0.9,2.4c0,0.9,0.4,1.8,1.1,2.5
			C1213.4,1258,1214.3,1258.4,1215.4,1258.4z"/>
		<path d="M1165.2,1287.5c2.3,2.2,5,4,8,5.2c3,1.3,6.3,1.9,9.8,1.9c3.4,0,6.7-0.6,9.8-1.9c3-1.3,5.7-3,8-5.2s4.1-4.8,5.4-7.8
			c1.3-3,2-6.2,2-9.5c0-3.4-0.7-6.6-2-9.5c-1.3-2.9-3.1-5.5-5.4-7.8c-2.3-2.2-5-4-8-5.2c-6.1-2.5-13.5-2.5-19.6,0
			c-3,1.3-5.7,3-8,5.2c-2.3,2.2-4.1,4.8-5.4,7.8c-1.3,3-2,6.2-2,9.5c0,3.4,0.7,6.6,2,9.5C1161.1,1282.7,1162.9,1285.3,1165.2,1287.5
			z M1166.5,1263.4c0.9-2.1,2.2-4,3.8-5.7c1.6-1.6,3.5-2.9,5.7-3.8c2.2-0.9,4.5-1.4,7-1.4s4.9,0.5,7,1.4c2.2,0.9,4.1,2.2,5.7,3.8
			c1.6,1.6,2.9,3.5,3.8,5.7c0.9,2.1,1.4,4.4,1.4,6.8c0,2.4-0.5,4.7-1.4,6.8c-0.9,2.2-2.2,4.1-3.8,5.7c-1.6,1.6-3.5,2.9-5.7,3.8
			c-4.3,1.8-9.7,1.8-14.1,0c-2.2-0.9-4.1-2.2-5.7-3.8c-1.6-1.6-2.9-3.5-3.8-5.7c-0.9-2.1-1.4-4.4-1.4-6.8
			S1165.5,1265.6,1166.5,1263.4z"/>
		<path d="M1296.9,1258.4C1297,1258.4,1297,1258.4,1296.9,1258.4c0.7,0,1.3-0.2,1.8-0.6v33.4c0,0.9,0.4,1.8,1.1,2.5
			c0.7,0.7,1.6,1,2.5,1c0.9,0,1.8-0.4,2.5-1c0.7-0.7,1.1-1.5,1.1-2.5v-41.8c0-0.3,0-0.7-0.1-1.1c-0.2-0.7-0.5-1.2-1.1-1.6
			c-0.7-0.5-1.5-0.8-2.3-0.8l-0.4,0c-0.9,0.1-1.6,0.5-2.2,1l-5.5,5.6c-0.6,0.7-0.9,1.5-0.9,2.4c0,0.9,0.4,1.8,1.1,2.5
			C1295,1258,1295.8,1258.4,1296.9,1258.4z"/>
		<path d="M1246.7,1287.5c2.3,2.2,5,4,8,5.2c3,1.3,6.3,1.9,9.8,1.9c3.4,0,6.7-0.6,9.8-1.9c3-1.3,5.7-3,8-5.2
			c2.3-2.2,4.1-4.8,5.4-7.8c1.3-3,2-6.2,2-9.5c0-3.4-0.7-6.6-2-9.5c-1.3-2.9-3.1-5.5-5.4-7.8c-2.3-2.2-5-4-8-5.2
			c-6.1-2.5-13.5-2.5-19.6,0c-3,1.3-5.7,3-8,5.2c-2.3,2.2-4.1,4.8-5.4,7.8c-1.3,3-2,6.2-2,9.5c0,3.4,0.7,6.6,2,9.5
			C1242.6,1282.7,1244.4,1285.3,1246.7,1287.5z M1248,1263.4c0.9-2.1,2.2-4,3.8-5.7c1.6-1.6,3.5-2.9,5.7-3.8c2.2-0.9,4.5-1.4,7-1.4
			c2.5,0,4.9,0.5,7,1.4c2.2,0.9,4.1,2.2,5.7,3.8c1.6,1.6,2.9,3.5,3.8,5.7c0.9,2.1,1.4,4.4,1.4,6.8c0,2.4-0.5,4.7-1.4,6.8
			c-0.9,2.2-2.2,4.1-3.8,5.7c-1.6,1.6-3.5,2.9-5.7,3.8c-4.3,1.8-9.7,1.8-14.1,0c-2.2-0.9-4.1-2.2-5.7-3.8c-1.6-1.6-2.9-3.5-3.8-5.7
			c-0.9-2.1-1.4-4.4-1.4-6.8S1247.1,1265.6,1248,1263.4z"/>
		<path d="M1052.3,1334.7C1052.3,1334.7,1052.3,1334.7,1052.3,1334.7c0.7,0,1.3-0.2,1.8-0.6v33.4c0,0.9,0.4,1.8,1.1,2.5
			c0.7,0.7,1.6,1,2.5,1c0.9,0,1.8-0.4,2.5-1c0.7-0.7,1.1-1.5,1.1-2.5v-41.8c0-0.3,0-0.7-0.1-1.1c-0.2-0.7-0.5-1.2-1.1-1.6
			c-0.7-0.5-1.5-0.8-2.3-0.8l-0.4,0c-0.9,0.1-1.6,0.5-2.2,1l-5.5,5.6c-0.6,0.7-0.9,1.5-0.9,2.4c0,0.9,0.4,1.8,1.1,2.5
			C1050.3,1334.3,1051.1,1334.7,1052.3,1334.7z"/>
		<path d="M1002,1363.8c2.3,2.2,5,4,8,5.2c3,1.3,6.3,1.9,9.8,1.9c3.4,0,6.7-0.6,9.8-1.9c3-1.3,5.7-3,8-5.2s4.1-4.8,5.4-7.8
			c1.3-3,2-6.2,2-9.5c0-3.4-0.7-6.6-2-9.5c-1.3-2.9-3.1-5.5-5.4-7.8c-2.3-2.2-5-4-8-5.2c-6.1-2.5-13.5-2.5-19.6,0
			c-3,1.3-5.7,3-8,5.2c-2.3,2.2-4.1,4.8-5.4,7.8c-1.3,3-2,6.2-2,9.5c0,3.4,0.7,6.6,2,9.5C997.9,1359,999.8,1361.6,1002,1363.8z
			 M1003.3,1339.7c0.9-2.1,2.2-4,3.8-5.7c1.6-1.6,3.5-2.9,5.7-3.8c2.2-0.9,4.5-1.4,7-1.4c2.5,0,4.9,0.5,7,1.4
			c2.2,0.9,4.1,2.2,5.7,3.8c1.6,1.6,2.9,3.5,3.8,5.7c0.9,2.1,1.4,4.4,1.4,6.8s-0.5,4.7-1.4,6.8c-0.9,2.2-2.2,4.1-3.8,5.7
			c-1.6,1.6-3.5,2.9-5.7,3.8c-4.3,1.8-9.7,1.8-14.1,0c-2.2-0.9-4.1-2.2-5.7-3.8c-1.6-1.6-2.9-3.5-3.8-5.7c-0.9-2.1-1.4-4.4-1.4-6.8
			S1002.4,1341.9,1003.3,1339.7z"/>
		<path d="M1133.8,1334.7C1133.8,1334.7,1133.8,1334.7,1133.8,1334.7c0.7,0,1.3-0.2,1.8-0.6v33.4c0,0.9,0.4,1.8,1.1,2.5
			c0.7,0.7,1.6,1,2.5,1c0.9,0,1.8-0.4,2.5-1c0.7-0.7,1.1-1.5,1.1-2.5v-41.8c0-0.3,0-0.7-0.1-1.1c-0.2-0.7-0.5-1.2-1.1-1.6
			c-0.7-0.5-1.5-0.8-2.3-0.8l-0.4,0c-0.9,0.1-1.6,0.5-2.2,1l-5.5,5.6c-0.6,0.7-0.9,1.5-0.9,2.4c0,0.9,0.4,1.8,1.1,2.5
			C1131.9,1334.3,1132.7,1334.7,1133.8,1334.7z"/>
		<path d="M1083.6,1363.8c2.3,2.2,5,4,8,5.2c3,1.3,6.3,1.9,9.8,1.9c3.4,0,6.7-0.6,9.8-1.9c3-1.3,5.7-3,8-5.2
			c2.3-2.2,4.1-4.8,5.4-7.8c1.3-3,2-6.2,2-9.5c0-3.4-0.7-6.6-2-9.5c-1.3-2.9-3.1-5.5-5.4-7.8c-2.3-2.2-5-4-8-5.2
			c-6.1-2.5-13.5-2.5-19.6,0c-3,1.3-5.7,3-8,5.2c-2.3,2.2-4.1,4.8-5.4,7.8c-1.3,3-2,6.2-2,9.5c0,3.4,0.7,6.6,2,9.5
			C1079.5,1359,1081.3,1361.6,1083.6,1363.8z M1084.9,1339.7c0.9-2.1,2.2-4,3.8-5.7c1.6-1.6,3.5-2.9,5.7-3.8c2.2-0.9,4.5-1.4,7-1.4
			s4.9,0.5,7,1.4c2.2,0.9,4.1,2.2,5.7,3.8c1.6,1.6,2.9,3.5,3.8,5.7c0.9,2.1,1.4,4.4,1.4,6.8s-0.5,4.7-1.4,6.8
			c-0.9,2.2-2.2,4.1-3.8,5.7c-1.6,1.6-3.5,2.9-5.7,3.8c-4.3,1.8-9.7,1.8-14.1,0c-2.2-0.9-4.1-2.2-5.7-3.8c-1.6-1.6-2.9-3.5-3.8-5.7
			c-0.9-2.1-1.4-4.4-1.4-6.8S1084,1341.9,1084.9,1339.7z"/>
		<path d="M1215.4,1334.7C1215.4,1334.7,1215.4,1334.7,1215.4,1334.7c0.7,0,1.3-0.2,1.8-0.6v33.4c0,0.9,0.4,1.8,1.1,2.5
			c0.7,0.7,1.6,1,2.5,1c0.9,0,1.8-0.4,2.5-1c0.7-0.7,1.1-1.5,1.1-2.5v-41.8c0-0.3,0-0.7-0.1-1.1c-0.2-0.7-0.5-1.2-1.1-1.6
			c-0.7-0.5-1.5-0.8-2.3-0.8l-0.4,0c-0.9,0.1-1.6,0.5-2.2,1l-5.5,5.6c-0.6,0.7-0.9,1.5-0.9,2.4c0,0.9,0.4,1.8,1.1,2.5
			C1213.4,1334.3,1214.3,1334.7,1215.4,1334.7z"/>
		<path d="M1165.2,1363.8c2.3,2.2,5,4,8,5.2c3,1.3,6.3,1.9,9.8,1.9c3.4,0,6.7-0.6,9.8-1.9c3-1.3,5.7-3,8-5.2s4.1-4.8,5.4-7.8
			c1.3-3,2-6.2,2-9.5c0-3.4-0.7-6.6-2-9.5c-1.3-2.9-3.1-5.5-5.4-7.8c-2.3-2.2-5-4-8-5.2c-6.1-2.5-13.5-2.5-19.6,0
			c-3,1.3-5.7,3-8,5.2c-2.3,2.2-4.1,4.8-5.4,7.8c-1.3,3-2,6.2-2,9.5c0,3.4,0.7,6.6,2,9.5C1161.1,1359,1162.9,1361.6,1165.2,1363.8z
			 M1166.5,1339.7c0.9-2.1,2.2-4,3.8-5.7c1.6-1.6,3.5-2.9,5.7-3.8c2.2-0.9,4.5-1.4,7-1.4s4.9,0.5,7,1.4c2.2,0.9,4.1,2.2,5.7,3.8
			c1.6,1.6,2.9,3.5,3.8,5.7c0.9,2.1,1.4,4.4,1.4,6.8s-0.5,4.7-1.4,6.8c-0.9,2.2-2.2,4.1-3.8,5.7c-1.6,1.6-3.5,2.9-5.7,3.8
			c-4.3,1.8-9.7,1.8-14.1,0c-2.2-0.9-4.1-2.2-5.7-3.8c-1.6-1.6-2.9-3.5-3.8-5.7c-0.9-2.1-1.4-4.4-1.4-6.8
			S1165.5,1341.9,1166.5,1339.7z"/>
		<path d="M1296.9,1334.7C1297,1334.7,1297,1334.7,1296.9,1334.7c0.7,0,1.3-0.2,1.8-0.6v33.4c0,0.9,0.4,1.8,1.1,2.5
			c0.7,0.7,1.6,1,2.5,1c0.9,0,1.8-0.4,2.5-1c0.7-0.7,1.1-1.5,1.1-2.5v-41.8c0-0.3,0-0.7-0.1-1.1c-0.2-0.7-0.5-1.2-1.1-1.6
			c-0.7-0.5-1.5-0.8-2.3-0.8l-0.4,0c-0.9,0.1-1.6,0.5-2.2,1l-5.5,5.6c-0.6,0.7-0.9,1.5-0.9,2.4c0,0.9,0.4,1.8,1.1,2.5
			C1295,1334.3,1295.8,1334.7,1296.9,1334.7z"/>
		<path d="M1246.7,1363.8c2.3,2.2,5,4,8,5.2c3,1.3,6.3,1.9,9.8,1.9c3.4,0,6.7-0.6,9.8-1.9c3-1.3,5.7-3,8-5.2
			c2.3-2.2,4.1-4.8,5.4-7.8c1.3-3,2-6.2,2-9.5c0-3.4-0.7-6.6-2-9.5c-1.3-2.9-3.1-5.5-5.4-7.8c-2.3-2.2-5-4-8-5.2
			c-6.1-2.5-13.5-2.5-19.6,0c-3,1.3-5.7,3-8,5.2c-2.3,2.2-4.1,4.8-5.4,7.8c-1.3,3-2,6.2-2,9.5c0,3.4,0.7,6.6,2,9.5
			C1242.6,1359,1244.4,1361.6,1246.7,1363.8z M1248,1339.7c0.9-2.1,2.2-4,3.8-5.7c1.6-1.6,3.5-2.9,5.7-3.8c2.2-0.9,4.5-1.4,7-1.4
			c2.5,0,4.9,0.5,7,1.4c2.2,0.9,4.1,2.2,5.7,3.8c1.6,1.6,2.9,3.5,3.8,5.7c0.9,2.1,1.4,4.4,1.4,6.8s-0.5,4.7-1.4,6.8
			c-0.9,2.2-2.2,4.1-3.8,5.7c-1.6,1.6-3.5,2.9-5.7,3.8c-4.3,1.8-9.7,1.8-14.1,0c-2.2-0.9-4.1-2.2-5.7-3.8c-1.6-1.6-2.9-3.5-3.8-5.7
			c-0.9-2.1-1.4-4.4-1.4-6.8S1247.1,1341.9,1248,1339.7z"/>
		<path d="M1052.3,1411C1052.3,1411,1052.3,1411,1052.3,1411c0.7,0,1.3-0.2,1.8-0.6v33.4c0,0.9,0.4,1.8,1.1,2.5c0.7,0.7,1.6,1,2.5,1
			c0.9,0,1.8-0.4,2.5-1c0.7-0.7,1.1-1.5,1.1-2.5V1402c0-0.3,0-0.7-0.1-1.1c-0.2-0.7-0.5-1.2-1.1-1.6c-0.7-0.5-1.5-0.8-2.3-0.8
			l-0.4,0c-0.9,0.1-1.6,0.5-2.2,1l-5.5,5.6c-0.6,0.7-0.9,1.5-0.9,2.4c0,0.9,0.4,1.8,1.1,2.5C1050.3,1410.6,1051.1,1411,1052.3,1411z
			"/>
		<path d="M1002,1440.1c2.3,2.2,5,4,8,5.2c3,1.3,6.3,1.9,9.8,1.9c3.4,0,6.7-0.6,9.8-1.9c3-1.3,5.7-3,8-5.2c2.3-2.2,4.1-4.8,5.4-7.8
			c1.3-3,2-6.2,2-9.5c0-3.4-0.7-6.6-2-9.5c-1.3-2.9-3.1-5.5-5.4-7.8c-2.3-2.2-5-4-8-5.2c-6.1-2.5-13.5-2.5-19.6,0
			c-3,1.3-5.7,3-8,5.2c-2.3,2.2-4.1,4.8-5.4,7.8c-1.3,3-2,6.2-2,9.5c0,3.4,0.7,6.6,2,9.5C997.9,1435.3,999.8,1437.9,1002,1440.1z
			 M1003.3,1416c0.9-2.1,2.2-4,3.8-5.7c1.6-1.6,3.5-2.9,5.7-3.8c2.2-0.9,4.5-1.4,7-1.4c2.5,0,4.9,0.5,7,1.4c2.2,0.9,4.1,2.2,5.7,3.8
			c1.6,1.6,2.9,3.5,3.8,5.7c0.9,2.1,1.4,4.4,1.4,6.8c0,2.4-0.5,4.7-1.4,6.8c-0.9,2.2-2.2,4.1-3.8,5.7c-1.6,1.6-3.5,2.9-5.7,3.8
			c-4.3,1.8-9.7,1.8-14.1,0c-2.2-0.9-4.1-2.2-5.7-3.8c-1.6-1.6-2.9-3.5-3.8-5.7c-0.9-2.1-1.4-4.4-1.4-6.8S1002.4,1418.2,1003.3,1416
			z"/>
		<path d="M1133.8,1411C1133.8,1411,1133.8,1411,1133.8,1411c0.7,0,1.3-0.2,1.8-0.6v33.4c0,0.9,0.4,1.8,1.1,2.5c0.7,0.7,1.6,1,2.5,1
			c0.9,0,1.8-0.4,2.5-1c0.7-0.7,1.1-1.5,1.1-2.5V1402c0-0.3,0-0.7-0.1-1.1c-0.2-0.7-0.5-1.2-1.1-1.6c-0.7-0.5-1.5-0.8-2.3-0.8
			l-0.4,0c-0.9,0.1-1.6,0.5-2.2,1l-5.5,5.6c-0.6,0.7-0.9,1.5-0.9,2.4c0,0.9,0.4,1.8,1.1,2.5C1131.9,1410.6,1132.7,1411,1133.8,1411z
			"/>
		<path d="M1083.6,1440.1c2.3,2.2,5,4,8,5.2c3,1.3,6.3,1.9,9.8,1.9c3.4,0,6.7-0.6,9.8-1.9c3-1.3,5.7-3,8-5.2
			c2.3-2.2,4.1-4.8,5.4-7.8c1.3-3,2-6.2,2-9.5c0-3.4-0.7-6.6-2-9.5c-1.3-2.9-3.1-5.5-5.4-7.8c-2.3-2.2-5-4-8-5.2
			c-6.1-2.5-13.5-2.5-19.6,0c-3,1.3-5.7,3-8,5.2c-2.3,2.2-4.1,4.8-5.4,7.8c-1.3,3-2,6.2-2,9.5c0,3.4,0.7,6.6,2,9.5
			C1079.5,1435.3,1081.3,1437.9,1083.6,1440.1z M1084.9,1416c0.9-2.1,2.2-4,3.8-5.7c1.6-1.6,3.5-2.9,5.7-3.8c2.2-0.9,4.5-1.4,7-1.4
			s4.9,0.5,7,1.4c2.2,0.9,4.1,2.2,5.7,3.8c1.6,1.6,2.9,3.5,3.8,5.7c0.9,2.1,1.4,4.4,1.4,6.8c0,2.4-0.5,4.7-1.4,6.8
			c-0.9,2.2-2.2,4.1-3.8,5.7c-1.6,1.6-3.5,2.9-5.7,3.8c-4.3,1.8-9.7,1.8-14.1,0c-2.2-0.9-4.1-2.2-5.7-3.8c-1.6-1.6-2.9-3.5-3.8-5.7
			c-0.9-2.1-1.4-4.4-1.4-6.8S1084,1418.2,1084.9,1416z"/>
		<path d="M1215.4,1411C1215.4,1411,1215.4,1411,1215.4,1411c0.7,0,1.3-0.2,1.8-0.6v33.4c0,0.9,0.4,1.8,1.1,2.5c0.7,0.7,1.6,1,2.5,1
			c0.9,0,1.8-0.4,2.5-1c0.7-0.7,1.1-1.5,1.1-2.5V1402c0-0.3,0-0.7-0.1-1.1c-0.2-0.7-0.5-1.2-1.1-1.6c-0.7-0.5-1.5-0.8-2.3-0.8
			l-0.4,0c-0.9,0.1-1.6,0.5-2.2,1l-5.5,5.6c-0.6,0.7-0.9,1.5-0.9,2.4c0,0.9,0.4,1.8,1.1,2.5C1213.4,1410.6,1214.3,1411,1215.4,1411z
			"/>
		<path d="M1165.2,1440.1c2.3,2.2,5,4,8,5.2c3,1.3,6.3,1.9,9.8,1.9c3.4,0,6.7-0.6,9.8-1.9c3-1.3,5.7-3,8-5.2
			c2.3-2.2,4.1-4.8,5.4-7.8c1.3-3,2-6.2,2-9.5c0-3.4-0.7-6.6-2-9.5c-1.3-2.9-3.1-5.5-5.4-7.8c-2.3-2.2-5-4-8-5.2
			c-6.1-2.5-13.5-2.5-19.6,0c-3,1.3-5.7,3-8,5.2c-2.3,2.2-4.1,4.8-5.4,7.8c-1.3,3-2,6.2-2,9.5c0,3.4,0.7,6.6,2,9.5
			C1161.1,1435.3,1162.9,1437.9,1165.2,1440.1z M1166.5,1416c0.9-2.1,2.2-4,3.8-5.7c1.6-1.6,3.5-2.9,5.7-3.8c2.2-0.9,4.5-1.4,7-1.4
			s4.9,0.5,7,1.4c2.2,0.9,4.1,2.2,5.7,3.8c1.6,1.6,2.9,3.5,3.8,5.7c0.9,2.1,1.4,4.4,1.4,6.8c0,2.4-0.5,4.7-1.4,6.8
			c-0.9,2.2-2.2,4.1-3.8,5.7c-1.6,1.6-3.5,2.9-5.7,3.8c-4.3,1.8-9.7,1.8-14.1,0c-2.2-0.9-4.1-2.2-5.7-3.8c-1.6-1.6-2.9-3.5-3.8-5.7
			c-0.9-2.1-1.4-4.4-1.4-6.8S1165.5,1418.2,1166.5,1416z"/>
		<path d="M1296.9,1411C1297,1411,1297,1411,1296.9,1411c0.7,0,1.3-0.2,1.8-0.6v33.4c0,0.9,0.4,1.8,1.1,2.5c0.7,0.7,1.6,1,2.5,1
			c0.9,0,1.8-0.4,2.5-1c0.7-0.7,1.1-1.5,1.1-2.5V1402c0-0.3,0-0.7-0.1-1.1c-0.2-0.7-0.5-1.2-1.1-1.6c-0.7-0.5-1.5-0.8-2.3-0.8
			l-0.4,0c-0.9,0.1-1.6,0.5-2.2,1l-5.5,5.6c-0.6,0.7-0.9,1.5-0.9,2.4c0,0.9,0.4,1.8,1.1,2.5C1295,1410.6,1295.8,1411,1296.9,1411z"
			/>
		<path d="M1246.7,1440.1c2.3,2.2,5,4,8,5.2c3,1.3,6.3,1.9,9.8,1.9c3.4,0,6.7-0.6,9.8-1.9c3-1.3,5.7-3,8-5.2
			c2.3-2.2,4.1-4.8,5.4-7.8c1.3-3,2-6.2,2-9.5c0-3.4-0.7-6.6-2-9.5c-1.3-2.9-3.1-5.5-5.4-7.8c-2.3-2.2-5-4-8-5.2
			c-6.1-2.5-13.5-2.5-19.6,0c-3,1.3-5.7,3-8,5.2c-2.3,2.2-4.1,4.8-5.4,7.8c-1.3,3-2,6.2-2,9.5c0,3.4,0.7,6.6,2,9.5
			C1242.6,1435.3,1244.4,1437.9,1246.7,1440.1z M1248,1416c0.9-2.1,2.2-4,3.8-5.7c1.6-1.6,3.5-2.9,5.7-3.8c2.2-0.9,4.5-1.4,7-1.4
			c2.5,0,4.9,0.5,7,1.4c2.2,0.9,4.1,2.2,5.7,3.8c1.6,1.6,2.9,3.5,3.8,5.7c0.9,2.1,1.4,4.4,1.4,6.8c0,2.4-0.5,4.7-1.4,6.8
			c-0.9,2.2-2.2,4.1-3.8,5.7c-1.6,1.6-3.5,2.9-5.7,3.8c-4.3,1.8-9.7,1.8-14.1,0c-2.2-0.9-4.1-2.2-5.7-3.8c-1.6-1.6-2.9-3.5-3.8-5.7
			c-0.9-2.1-1.4-4.4-1.4-6.8S1247.1,1418.2,1248,1416z"/>
		<path d="M1346.8,1189.5H959.5c-2.6,0-4.7,2.1-4.7,4.7v323.1c0,2.6,2.1,4.7,4.7,4.7h387.3c2.6,0,4.7-2.1,4.7-4.7v-323.1
			C1351.5,1191.7,1349.4,1189.5,1346.8,1189.5z M1342.1,1512.7H964.2V1199h377.9V1512.7z"/>
		<path d="M1448.8,1545.6H1391v-384.3c0-2.6-2.1-4.7-4.7-4.7H920c-2.6,0-4.7,2.1-4.7,4.7v384.3h-48.6c-2.6,0-4.7,2.1-4.7,4.7v69
			c0,2.6,2.1,4.7,4.7,4.7h582.2c2.6,0,4.7-2.1,4.7-4.7v-69C1453.5,1547.7,1451.4,1545.6,1448.8,1545.6z M924.7,1166h456.9v379.6
			H924.7V1166z M1444.1,1614.6H871.4V1555H920h466.3h57.9V1614.6z"/>
		<path d="M1214.1,1566h-112.7c-2.6,0-4.7,2.1-4.7,4.7v28.2c0,2.6,2.1,4.7,4.7,4.7h112.7c2.6,0,4.7-2.1,4.7-4.7v-28.2
			C1218.8,1568.1,1216.7,1566,1214.1,1566z M1209.4,1594.2h-103.3v-18.8h103.3V1594.2z"/>
	</g>
	<g>
		<path fill="#F47721" d="M513.5,514.4c0,3.6-0.3,7.1-0.7,10.6h27.5v-20.6h-27.4C513.3,507.7,513.5,511,513.5,514.4z"/>
		<path fill="#F47721" d="M333.7,504.4h-27.6V525h27.7c-0.4-3.5-0.7-7-0.7-10.6C333.1,511,333.3,507.7,333.7,504.4z"/>
		<path fill="#F47721" d="M433.5,424.8v-27.3h-20.6v27.3c3.4-0.4,6.9-0.6,10.4-0.6C426.7,424.2,430.1,424.5,433.5,424.8z"/>
		<path fill="#F47721" d="M493.9,458.5l19.4-19.4l-14.5-14.5l-19.3,19.3C484.8,448.2,489.7,453.1,493.9,458.5z"/>
		<path fill="#F47721" d="M352.8,570.5l-19.7,19.7l14.5,14.5l19.7-19.7C362,580.8,357.1,575.9,352.8,570.5z"/>
		<path fill="#F47721" d="M367.1,444l-19.4-19.4l-14.5,14.5l19.5,19.5C356.8,453.2,361.7,448.3,367.1,444z"/>
		<path fill="#F47721" d="M412.9,604v27.9h20.6V604c-3.4,0.4-6.7,0.6-10.2,0.6C419.8,604.6,416.3,604.3,412.9,604z"/>
		<path fill="#6DCACB" d="M423.3,757.5c134.1,0,243.1-109.1,243.1-243.1S557.3,271.3,423.3,271.3S180.2,380.3,180.2,514.4
			S289.2,757.5,423.3,757.5z M428.8,715.3v-9.4c40.8-1.2,78.5-15.1,109.1-38l6.8,6.6C512.3,699.1,472.2,714.1,428.8,715.3z
			 M549.7,529.7c0,2.6-2.1,4.7-4.7,4.7h-33.9c-2.3,10.3-6.4,19.9-11.9,28.5l24.1,24.1c1.8,1.8,1.8,4.8,0,6.7l-21.2,21.2
			c-0.9,0.9-2.1,1.4-3.3,1.4c-1.2,0-2.4-0.5-3.3-1.4l-24.1-24.1c-8.6,5.4-18.2,9.5-28.4,11.8v34.1c0,2.6-2.1,4.7-4.7,4.7h-30
			c-2.6,0-4.7-2.1-4.7-4.7v-34.2c-10.2-2.3-19.7-6.3-28.3-11.8L351,614.8c-0.9,0.9-2.1,1.4-3.3,1.4s-2.4-0.5-3.3-1.4l-21.2-21.2
			c-1.8-1.8-1.8-4.8,0-6.7l24.2-24.2c-5.5-8.6-9.5-18.1-11.9-28.4h-34.1c-2.6,0-4.7-2.1-4.7-4.7v-30c0-2.6,2.1-4.7,4.7-4.7h33.9
			c2.3-10.3,6.3-19.9,11.8-28.6l-24-24c-1.8-1.8-1.8-4.8,0-6.7l21.2-21.2c1.8-1.8,4.8-1.8,6.7,0l23.9,23.9c8.7-5.6,18.3-9.7,28.7-12
			v-33.6c0-2.6,2.1-4.7,4.7-4.7h30c2.6,0,4.7,2.1,4.7,4.7v33.6c10.4,2.3,20.1,6.4,28.7,12l23.8-23.8c1.8-1.8,4.8-1.8,6.7,0
			l21.2,21.2c1.8,1.8,1.8,4.8,0,6.7l-23.8,23.8c5.5,8.7,9.6,18.3,11.9,28.7H545c2.6,0,4.7,2.1,4.7,4.7V529.7z M624.3,516.4
			c-0.3,33.2-8.7,64.5-23.4,92l-8.7-3.6c14-26.1,22.1-55.7,22.6-87.2L624.3,516.4z M549.2,357.9c22.7,18.3,41.3,41.3,54.3,67.7
			l-9.2,2.7c-12.1-23.9-29-44.9-49.5-61.8L549.2,357.9z M438.2,314c24.7,1.8,48.2,8.1,69.7,18.1l-5.7,7.8c-19.8-9-41.3-14.7-64-16.4
			V314z M423.3,357.3c86.6,0,157.1,70.5,157.1,157.1c0,0.1,0,0.2,0,0.3H571c0-0.1,0-0.2,0-0.3c0-81.4-66.3-147.7-147.7-147.7
			S275.6,433,275.6,514.4s66.3,147.7,147.7,147.7v9.4c-86.6,0-157.1-70.5-157.1-157.1S336.6,357.3,423.3,357.3z M412.3,313.7v9.4
			c-38.2,2.2-73.4,15.6-102.4,36.9l-6.8-6.7C333.9,330.3,371.5,315.9,412.3,313.7z M222.5,522.7c-0.1-2.8-0.2-5.5-0.2-8.3
			c0-44.2,14.3-85,38.6-118.2l7.1,6.3c-22.8,31.5-36.2,70.2-36.2,111.9c0,2.3,0.1,4.6,0.2,6.8L222.5,522.7z"/>
		<path fill="#F47721" d="M479.1,585.1l19.7,19.7l14.5-14.5l-19.6-19.6C489.4,576,484.5,580.9,479.1,585.1z"/>
		<path fill="#F47721" d="M423.3,491.3c-12.7,0-23.1,10.4-23.1,23.1s10.3,23.1,23.1,23.1s23.1-10.3,23.1-23.1S436,491.3,423.3,491.3
			z"/>
		<path fill="#F47721" d="M423.3,433.6c-44.5,0-80.8,36.2-80.8,80.8s36.2,80.8,80.8,80.8s80.8-36.2,80.8-80.8
			S467.8,433.6,423.3,433.6z M423.3,582.6c-37.6,0-68.2-30.6-68.2-68.2s30.6-68.2,68.2-68.2s68.2,30.6,68.2,68.2
			S460.9,582.6,423.3,582.6z"/>
		<path d="M423.3,446.2c-37.6,0-68.2,30.6-68.2,68.2s30.6,68.2,68.2,68.2s68.2-30.6,68.2-68.2S460.9,446.2,423.3,446.2z
			 M423.3,573.2c-32.4,0-58.8-26.4-58.8-58.8s26.4-58.8,58.8-58.8s58.8,26.4,58.8,58.8S455.7,573.2,423.3,573.2z"/>
		<path d="M423.3,481.9c-17.9,0-32.5,14.6-32.5,32.5c0,17.9,14.6,32.5,32.5,32.5s32.5-14.6,32.5-32.5
			C455.8,496.5,441.2,481.9,423.3,481.9z M423.3,537.5c-12.7,0-23.1-10.3-23.1-23.1s10.3-23.1,23.1-23.1s23.1,10.4,23.1,23.1
			S436,537.5,423.3,537.5z"/>
		<path d="M545,495h-33.7c-2.3-10.3-6.4-20-11.9-28.7l23.8-23.8c1.8-1.8,1.8-4.8,0-6.7l-21.2-21.2c-1.8-1.8-4.8-1.8-6.7,0
			l-23.8,23.8c-8.7-5.5-18.4-9.7-28.7-12v-33.6c0-2.6-2.1-4.7-4.7-4.7h-30c-2.6,0-4.7,2.1-4.7,4.7v33.6c-10.3,2.3-20,6.4-28.7,12
			L351,414.6c-1.8-1.8-4.8-1.8-6.7,0l-21.2,21.2c-1.8,1.8-1.8,4.8,0,6.7l24,24c-5.5,8.7-9.5,18.3-11.8,28.6h-33.9
			c-2.6,0-4.7,2.1-4.7,4.7v30c0,2.6,2.1,4.7,4.7,4.7h34.1c2.3,10.2,6.4,19.8,11.9,28.4l-24.2,24.2c-1.8,1.8-1.8,4.8,0,6.7l21.2,21.2
			c0.9,0.9,2.1,1.4,3.3,1.4s2.4-0.5,3.3-1.4l24.2-24.2c8.6,5.4,18.1,9.5,28.3,11.8v34.2c0,2.6,2.1,4.7,4.7,4.7h30
			c2.6,0,4.7-2.1,4.7-4.7v-34.1c10.2-2.3,19.8-6.3,28.4-11.8l24.1,24.1c0.9,0.9,2.1,1.4,3.3,1.4c1.2,0,2.4-0.5,3.3-1.4l21.2-21.2
			c1.8-1.8,1.8-4.8,0-6.7l-24.1-24.1c5.5-8.6,9.6-18.2,11.9-28.5H545c2.6,0,4.7-2.1,4.7-4.7v-30C549.7,497.1,547.6,495,545,495z
			 M306.1,525v-20.6h27.6c-0.4,3.3-0.6,6.6-0.6,10c0,3.6,0.3,7.1,0.7,10.6H306.1z M498.8,424.6l14.5,14.5l-19.4,19.4
			c-4.3-5.4-9.1-10.3-14.5-14.6L498.8,424.6z M412.9,397.5h20.6v27.3c-3.4-0.4-6.7-0.6-10.2-0.6c-3.5,0-7,0.3-10.4,0.6V397.5z
			 M333.1,439.1l14.5-14.5l19.4,19.4c-5.4,4.3-10.2,9.2-14.5,14.6L333.1,439.1z M347.6,604.8l-14.5-14.5l19.7-19.7
			c4.3,5.4,9.2,10.2,14.6,14.5L347.6,604.8z M433.5,631.8h-20.6V604c3.4,0.4,6.9,0.6,10.4,0.6c3.5,0,6.8-0.2,10.2-0.6V631.8z
			 M513.3,590.2l-14.5,14.5l-19.7-19.7c5.4-4.3,10.3-9.1,14.6-14.5L513.3,590.2z M423.3,595.2c-44.5,0-80.8-36.2-80.8-80.8
			s36.2-80.8,80.8-80.8s80.8,36.2,80.8,80.8S467.8,595.2,423.3,595.2z M540.3,525h-27.5c0.4-3.5,0.7-7,0.7-10.6
			c0-3.4-0.2-6.7-0.6-10h27.4V525z"/>
		<path d="M423.3,766.9c139.3,0,252.5-113.3,252.5-252.5S562.5,261.9,423.3,261.9S170.7,375.2,170.7,514.4S284,766.9,423.3,766.9z
			 M423.3,271.3c134.1,0,243.1,109.1,243.1,243.1S557.3,757.5,423.3,757.5S180.2,648.5,180.2,514.4S289.2,271.3,423.3,271.3z"/>
		<path d="M266.2,514.4c0,86.6,70.5,157.1,157.1,157.1v-9.4c-81.4,0-147.7-66.3-147.7-147.7s66.3-147.7,147.7-147.7
			S571,433,571,514.4c0,0.1,0,0.2,0,0.3h9.4c0-0.1,0-0.2,0-0.3c0-86.6-70.5-157.1-157.1-157.1S266.2,427.8,266.2,514.4z"/>
		<path d="M412.3,323.1v-9.4c-40.8,2.2-78.4,16.6-109.2,39.7l6.8,6.7C338.9,338.7,374.1,325.3,412.3,323.1z"/>
		<path d="M507.9,332.1c-21.5-10-45-16.3-69.7-18.1v9.4c22.7,1.8,44.2,7.5,64,16.4L507.9,332.1z"/>
		<path d="M594.3,428.2l9.2-2.7c-13-26.3-31.6-49.4-54.3-67.7l-4.4,8.5C565.4,383.3,582.3,404.3,594.3,428.2z"/>
		<path d="M267.9,402.5l-7.1-6.3c-24.2,33.2-38.6,74.1-38.6,118.2c0,2.8,0.1,5.6,0.2,8.3l9.4-1.5c-0.1-2.3-0.2-4.5-0.2-6.8
			C231.7,472.6,245.1,434,267.9,402.5z"/>
		<path d="M428.8,705.9v9.4c43.5-1.2,83.5-16.2,115.9-40.8l-6.8-6.6C507.3,690.8,469.6,704.7,428.8,705.9z"/>
		<path d="M600.9,608.4c14.6-27.5,23-58.8,23.4-92l-9.4,1.2c-0.5,31.5-8.6,61.1-22.6,87.2L600.9,608.4z"/>
	</g>
</g>
</svg>
